<?xml version="1.0" encoding="UTF-8"?>
<svg width="18px" height="18px" viewBox="0 0 18 18" version="1.1" xmlns="http://www.w3.org/2000/svg" xmlns:xlink="http://www.w3.org/1999/xlink">
    <!-- Generator: Sketch 42 (36781) - http://www.bohemiancoding.com/sketch -->
    <title>Fill 1</title>
    <desc>Created with Sketch.</desc>
    <defs></defs>
    <g id="Main-page" stroke="none" stroke-width="1" fill="none" fill-rule="evenodd">
        <g id="main/desktop" transform="translate(-374.000000, -3214.000000)" fill="#FFFFFF">
            <g id="Group-24" transform="translate(362.000000, 3203.000000)">
                <g id="Group-13">
                    <path d="M29.2766747,18.9872123 C29.1264187,17.2654262 28.3692885,15.6427844 27.1450715,14.4185674 C25.9214702,13.1943503 24.2988284,12.4372201 22.5773502,12.2866562 C22.0997947,12.2447816 21.6785852,12.5976369 21.6367106,13.0751924 C21.5945281,13.5527479 21.9479992,13.9739574 22.4255547,14.015832 C23.7415264,14.1312951 24.9817543,14.7095344 25.9174675,15.6458634 C26.8537965,16.5818845 27.4323437,17.8224203 27.547499,19.1380842 C27.5659731,19.3496126 27.6589594,19.5371247 27.797823,19.6759884 C27.973327,19.8514923 28.2214957,19.9506367 28.4875228,19.9269282 C28.9653862,19.8859773 29.3182415,19.4647678 29.2766747,18.9872123 M22.1235031,17.4427776 C22.6364673,17.4877312 23.119565,17.7134231 23.4847364,18.0782866 C23.8499078,18.4437659 24.0755997,18.9271715 24.1202455,19.4401357 C24.1387196,19.6513563 24.2320138,19.8385605 24.3711853,19.977732 C24.5463814,20.1529281 24.794858,20.2520724 25.0605772,20.2286719 C25.5381327,20.1867973 25.8912959,19.7658957 25.8494212,19.2886481 C25.7690589,18.3698695 25.3650919,17.5046658 24.7120325,16.8512985 C24.0592809,16.1985469 23.1940772,15.794272 22.2752987,15.7136018 C21.7980511,15.6714193 21.3768416,16.0245825 21.334967,16.502138 C21.2927844,16.9790777 21.6462555,17.400595 22.1235031,17.4427776 M28.4247108,26.4245772 C27.7627222,27.010822 27.1001178,27.596451 26.4378213,28.1820799 C25.5609174,28.9567605 23.868074,29.2868311 22.7386907,28.7695563 C17.6598526,26.4556753 13.7959946,22.0862427 12.1216253,16.762007 C11.7462931,15.5781251 12.2811183,13.9382408 13.1574065,13.1626365 C13.8200109,12.5776233 14.4823074,11.9913785 15.1446039,11.4060574 C16.0242789,10.6282978 16.9131911,11.0094801 17.2879074,12.1939778 C17.6265992,13.2697862 18.0542747,14.3064912 18.5632361,15.2957792 C17.9074056,15.8761739 17.2509592,16.4562606 16.5948207,17.0363474 C16.1271181,17.4501672 16.058456,18.4080493 16.5083004,19.1340814 C17.6851006,21.0359901 19.1787316,22.7245228 20.9220708,24.1254754 C21.5868305,24.6609164 22.5462521,24.7098728 23.0139548,24.2963609 C23.6704011,23.7162741 24.3265396,23.1358795 24.982678,22.5557927 C25.9023803,23.1823726 26.8787365,23.7338245 27.9049728,24.2012192 C29.034664,24.7181861 29.3043859,25.6474334 28.4247108,26.4245772" id="Fill-1"></path>
                </g>
            </g>
        </g>
    </g>
</svg>