<?xml version="1.0" encoding="UTF-8"?>
<svg width="168px" height="84px" viewBox="0 0 168 84" version="1.1" xmlns="http://www.w3.org/2000/svg" xmlns:xlink="http://www.w3.org/1999/xlink">
    <!-- Generator: Sketch 42 (36781) - http://www.bohemiancoding.com/sketch -->
    <title>tag_2</title>
    <desc>Created with Sketch.</desc>
    <defs></defs>
    <g id="Main_page+search" stroke="none" stroke-width="1" fill="none" fill-rule="evenodd">
        <g id="главная/вариант2" transform="translate(-78.000000, -259.000000)">
            <g id="tag_2" transform="translate(61.000000, 235.000000)">
                <g id="Group-3-Copy" transform="translate(71.721858, 70.847826) rotate(27.000000) translate(-71.721858, -70.847826) translate(17.721858, 18.847826)">
                    <path d="M28.5314267,23.7698337 C28.5314267,22.6607823 29.2463583,21.2117711 30.110754,20.5468514 L52.1993287,3.55564006 C53.071567,2.88468748 54.4935875,2.89072032 55.3579832,3.55564006 L77.4465579,20.5468514 C78.3187962,21.217804 79.0258851,22.6559544 79.0258851,23.7698337 L79.0258851,99.3794801 C79.0258851,100.488531 78.1280288,101.387595 77.03089,101.387595 L30.5264218,101.387595 C29.4246164,101.387595 28.5314267,100.493359 28.5314267,99.3794801 L28.5314267,23.7698337 Z M54.2641796,26.6169549 C57.2137999,26.6169549 59.6049396,24.2258152 59.6049396,21.2761949 C59.6049396,18.3265745 57.2137999,15.9354348 54.2641796,15.9354348 C51.3145592,15.9354348 48.9234195,18.3265745 48.9234195,21.2761949 C48.9234195,24.2258152 51.3145592,26.6169549 54.2641796,26.6169549 Z" id="Combined-Shape" fill="#D3494A" transform="translate(53.778656, 52.221140) rotate(48.000000) translate(-53.778656, -52.221140) "></path>
                    <path d="M24.2267352,57.2473236 C24.2267352,55.3309864 24.8453859,53.7164589 26.082706,52.4036925 C27.320026,51.0909261 28.9722762,50.4345527 31.039506,50.4345527 C33.1067359,50.4345527 34.758986,51.0871538 35.9963061,52.3923756 C37.2336261,53.6975973 37.8522769,55.3158971 37.8522769,57.2473236 L37.8522769,58.9901254 C37.8522769,60.9064626 37.2373984,62.5134456 36.007623,63.8111227 C34.7778476,65.1087998 33.1369142,65.7576287 31.0847736,65.7576287 C29.0024545,65.7576287 27.3388876,65.1087998 26.0940229,63.8111227 C24.8491582,62.5134456 24.2267352,60.9064626 24.2267352,58.9901254 L24.2267352,57.2473236 Z M27.5312685,58.9901254 C27.5312685,60.1067313 27.8368217,61.0535687 28.4479371,61.8306661 C29.0590524,62.6077634 29.9379892,62.9963063 31.0847736,62.9963063 C32.1862902,62.9963063 33.0388211,62.6115357 33.6423919,61.841983 C34.2459627,61.0724303 34.5477435,60.1218206 34.5477435,58.9901254 L34.5477435,57.2473236 C34.5477435,56.1307177 34.2421904,55.1763357 33.631075,54.3841491 C33.0199596,53.5919625 32.1561119,53.1958751 31.039506,53.1958751 C29.9078109,53.1958751 29.0401909,53.5919625 28.4366202,54.3841491 C27.8330494,55.1763357 27.5312685,56.1307177 27.5312685,57.2473236 L27.5312685,58.9901254 Z M40.1835573,75.7843977 C40.1835573,73.8680606 40.802208,72.2573053 42.0395281,70.9520835 C43.2768481,69.6468618 44.9290983,68.9942607 46.9963281,68.9942607 C49.0484687,68.9942607 50.6969466,69.6468618 51.9418113,70.9520835 C53.186676,72.2573053 53.809099,73.8680606 53.809099,75.7843977 L53.809099,77.5498334 C53.809099,79.4812598 53.1904482,81.0957873 51.9531282,82.3934645 C50.7158081,83.6911416 49.078647,84.3399704 47.0415957,84.3399704 C44.9592766,84.3399704 43.2957096,83.6911416 42.050845,82.3934645 C40.8059803,81.0957873 40.1835573,79.4812598 40.1835573,77.5498334 L40.1835573,75.7843977 Z M43.4880906,77.5498334 C43.4880906,78.6815285 43.7936437,79.6359105 44.4047591,80.4130078 C45.0158745,81.1901052 45.8948113,81.578648 47.0415957,81.578648 C48.1431123,81.578648 48.9956432,81.1901052 49.599214,80.4130078 C50.2027847,79.6359105 50.5045656,78.6815285 50.5045656,77.5498334 L50.5045656,75.7843977 C50.5045656,74.6677918 50.1952402,73.7171821 49.5765802,72.9325402 C48.9579202,72.1478982 48.0978447,71.7555831 46.9963281,71.7555831 C45.8797222,71.7555831 45.0158745,72.1478982 44.4047591,72.9325402 C43.7936437,73.7171821 43.4880906,74.6677918 43.4880906,75.7843977 L43.4880906,77.5498334 Z M32.2390969,81.3749439 L29.7720138,79.85848 L45.8646386,54.1012267 L48.3317217,55.6176907 L32.2390969,81.3749439 Z" id="%" fill="#FFFFFF" transform="translate(39.017917, 67.387262) rotate(-40.000000) translate(-39.017917, -67.387262) "></path>
                </g>
                <g id="Group-4-Copy" transform="translate(106.000000, 18.000000)" stroke="#E0E0E0">
                    <path d="M65.4205122,4.40107933 C56.3946365,9.81985192 42.492446,25.9339023 13.6817541,41.5275297" id="Path-4" stroke-width="2" transform="translate(39.551133, 22.964304) rotate(8.000000) translate(-39.551133, -22.964304) "></path>
                    <path d="M0,44 C14,47 88,26 76,8" id="Path-5" stroke-width="2"></path>
                    <path d="M73,7 C75,7 76,7 77,9" id="Path-6" stroke-width="2"></path>
                </g>
            </g>
        </g>
    </g>
</svg>