<?xml version="1.0" encoding="UTF-8"?>
<svg width="42px" height="42px" viewBox="0 0 42 42" version="1.1" xmlns="http://www.w3.org/2000/svg" xmlns:xlink="http://www.w3.org/1999/xlink">
    <!-- Generator: Sketch 41 (35326) - http://www.bohemiancoding.com/sketch -->
    <title>Slice 3 Copy 6</title>
    <desc>Created with Sketch.</desc>
    <defs></defs>
    <g id="Main-page" stroke="none" stroke-width="1" fill="none" fill-rule="evenodd">
        <g id="Page-1-Copy-8" transform="translate(6.000000, 6.000000)">
            <g id="Group-3" transform="translate(17.142857, 0.753469)" fill="#8C8C8C">
                <path d="M11.1476327,3.52718367 L0.823755102,0.179632653 C0.900489796,0.336979592 0.971306122,0.498408163 1.02640816,0.668612245 L7.11314286,19.4402449 C7.75293878,21.4133061 6.6682449,23.5390204 4.69518367,24.1788163 L0.068244898,25.6788163 L3.59416327,26.8222857 C4.84334694,27.2271837 6.18416327,26.542898 6.58926531,25.2939184 L12.676,6.52208163 C13.081102,5.27310204 12.3968163,3.93208163 11.1476327,3.52718367" id="Fill-1"></path>
            </g>
            <path d="M10.2990204,19.0581429 C10.7749388,20.2722245 11.4551429,21.1499796 12.155551,21.7701837 L15.6324898,20.6428367 C15.8306531,19.7328367 15.8702449,18.623449 15.5388163,17.3591633 L10.2990204,19.0581429 Z" id="Fill-4" fill="#1CD19C"></path>
            <path d="M15.2372449,16.487 C14.7452041,15.2325102 14.0347959,14.334551 13.3105102,13.7108776 L9.92642857,14.8080204 C9.71010204,15.7355714 9.65438776,16.877 9.99744898,18.1859796 L15.2372449,16.487 Z" id="Fill-6" fill="#1CD19C"></path>
            <path d="M14.5129796,23.1491429 C14.7086939,22.8877143 15.0321633,22.3985306 15.3042041,21.7191429 L13.0419592,22.4528163 C13.6595102,22.8426122 14.2056327,23.0513878 14.5129796,23.1491429" id="Fill-8" fill="#1CD19C"></path>
            <path d="M8.92455102,15.1329592 L7.44883673,15.6113265 C6.9947551,16.7223469 6.90312245,17.9309184 7.18271429,19.0988776 L9.12312245,18.4696939 C8.78597959,17.2145918 8.77108163,16.0913265 8.92455102,15.1329592" id="Fill-10" fill="#1CD19C"></path>
            <path d="M5.11069388,7.04363265 C5.03314286,6.97526531 4.94130612,6.9242449 4.8304898,6.88812245 C4.716,6.85179592 4.58171429,6.83179592 4.44579592,6.83873469 C4.29804082,6.84281633 4.14926531,6.86893878 4.00416327,6.91608163 C3.82314286,6.97465306 3.64742857,7.07016327 3.47885714,7.20118367 L3.60967347,7.53730612 L3.60967347,7.53791837 L3.68253061,7.7275102 C3.73742857,7.8775102 3.78885714,8.01179592 3.83661224,8.13342857 L3.92763265,8.36097959 C4.13028571,8.35016327 4.32314286,8.31546939 4.50171429,8.25730612 C4.63946939,8.21240816 4.7682449,8.15240816 4.88355102,8.07853061 C4.99171429,8.00914286 5.07906122,7.93016327 5.14416327,7.84567347 C5.20722449,7.76220408 5.24865306,7.67485714 5.27008163,7.5764898 C5.29089796,7.48240816 5.28538776,7.382 5.25395918,7.26893878 C5.22681633,7.1797551 5.18008163,7.10485714 5.11069388,7.04363265" id="Fill-12" fill="#1CD19C"></path>
            <path d="M8.19404082,7.34416327 L7.88240816,6.91885714 C7.77771429,6.77702041 7.67587755,6.6404898 7.57771429,6.51191837 C7.52730612,6.44620408 7.47955102,6.38355102 7.43546939,6.3237551 L7.41832653,7.76906122 L8.29506122,7.48457143 C8.26240816,7.43865306 8.22914286,7.39191837 8.19404082,7.34416327" id="Fill-14" fill="#1CD19C"></path>
            <path d="M16.413102,17.0757143 C16.7392245,18.2895918 16.7659592,19.3826531 16.628,20.32 L18.1296327,19.8332653 C18.5484082,18.7502041 18.6247347,17.5787755 18.3535102,16.4465306 L16.413102,17.0757143 Z" id="Fill-16" fill="#1CD19C"></path>
            <path d="M15.9522245,22.5255306 C16.553449,22.1236939 17.0693673,21.6161429 17.4824286,21.0130816 L16.4012041,21.3634898 C16.2718163,21.8032857 16.1142653,22.1885918 15.9522245,22.5255306" id="Fill-18" fill="#8C8C8C"></path>
            <path d="M10.828551,23.1704694 C11.5189592,23.4196531 12.2581429,23.5376122 13.0101837,23.5063878 C12.6726327,23.3259796 12.3077347,23.1012857 11.933449,22.812102 L10.828551,23.1704694 Z" id="Fill-20" fill="#8C8C8C"></path>
            <g id="Group-24" transform="translate(0.000000, 0.141224)" fill="#1CD19C">
                <path d="M18.7073265,20.6621633 C17.8973265,22.2482857 16.5187551,23.4242041 14.8248776,23.974 C14.1436531,24.1948163 13.453449,24.2995102 12.7730408,24.2995102 C9.95997959,24.2995102 7.33895918,22.5042041 6.42610204,19.6882857 C5.8765102,17.9942041 6.01997959,16.1876735 6.82895918,14.6009388 C7.63895918,13.0146122 9.01773469,11.8386939 10.7116122,11.289102 C14.2101837,10.1568571 17.9765102,12.0778776 19.1101837,15.5748163 C19.6597755,17.268898 19.5165102,19.0754286 18.7073265,20.6621633 M6.0532449,7.58481633 C6.02263265,7.79073469 5.94691837,7.98277551 5.82895918,8.15440816 C5.71263265,8.32012245 5.56487755,8.46420408 5.38916327,8.58420408 C5.21691837,8.70134694 5.02242857,8.79583673 4.81161224,8.86440816 C4.66732653,8.91114286 4.51589796,8.94644898 4.35569388,8.97032653 C4.29793878,8.97889796 4.24120408,8.98522449 4.18344898,8.99053061 C4.23487755,9.15053061 4.28528571,9.3117551 4.33589796,9.47359184 C4.41691837,9.73257143 4.49793878,9.9884898 4.57997959,10.241551 C4.60508163,10.3870612 4.57181633,10.4966531 4.49610204,10.5866531 C4.43487755,10.6601224 4.36018367,10.7119592 4.2754898,10.7395102 C4.23120408,10.7537959 4.18712245,10.7611429 4.14304082,10.7611429 C4.09242857,10.7611429 4.04202041,10.7511429 3.99426531,10.7323673 C3.92406122,10.7033878 3.82936735,10.6372653 3.77712245,10.4835918 C3.71773469,10.2650204 3.66079592,10.0650204 3.60508163,9.87093878 C3.54997959,9.67889796 3.49242857,9.48930612 3.43202041,9.30420408 C3.35732653,9.07481633 3.27977551,8.85216327 3.1987551,8.63563265 C3.04283673,8.20665306 2.91222449,7.83318367 2.80589796,7.51563265 C2.76528571,7.50828571 2.72283673,7.49440816 2.6787551,7.47195918 C2.66079592,7.46236735 2.64365306,7.45073469 2.62834694,7.43665306 C2.42018367,7.24665306 2.47793878,7.06644898 2.51202041,6.99787755 C2.53732653,6.94522449 2.55977551,6.90297959 2.57977551,6.87277551 C2.57528571,6.86134694 2.57059184,6.84971429 2.56528571,6.83746939 C2.51018367,6.71277551 2.51385714,6.57930612 2.57610204,6.46502041 C2.60936735,6.40236735 2.71304082,6.25093878 2.96630612,6.27746939 C3.01222449,6.28216327 3.05446939,6.29991837 3.08977551,6.32889796 C3.10222449,6.33930612 3.11487755,6.34971429 3.12569388,6.36093878 C3.27610204,6.25726531 3.4454898,6.16767347 3.63202041,6.09379592 C3.94120408,5.97481633 4.22957143,5.9062449 4.55018367,5.92379592 C4.87467347,5.92114286 5.16202041,5.99502041 5.41528571,6.14236735 C5.55487755,6.21767347 5.68018367,6.3262449 5.77834694,6.46093878 C5.87202041,6.58930612 5.94508163,6.74012245 5.99630612,6.91053061 C6.06589796,7.15236735 6.08467347,7.37869388 6.0532449,7.58481633 M6.63161224,6.17583673 C6.63610204,5.96767347 6.64793878,5.78522449 6.66406122,5.62828571 C6.68385714,5.45726531 6.71365306,5.32012245 6.75508163,5.2084898 C6.81732653,5.04767347 6.91365306,4.94665306 7.04161224,4.90481633 C7.13161224,4.87502041 7.27589796,4.86420408 7.45161224,4.97869388 C7.54977551,5.04257143 7.65263265,5.13644898 7.76691837,5.26563265 C7.86977551,5.38236735 7.9832449,5.52746939 8.10753061,5.6995102 C8.22732653,5.86583673 8.36079592,6.04869388 8.50855102,6.24910204 L9.14916327,7.12665306 C9.2465102,7.11726531 9.31957143,7.15236735 9.38793878,7.20379592 C9.45916327,7.26012245 9.50773469,7.32889796 9.53120408,7.40706122 C9.55732653,7.48706122 9.55283673,7.57828571 9.51855102,7.66053061 C9.51589796,7.66563265 9.51406122,7.67053061 9.51140816,7.67542857 L9.94304082,8.33542857 C9.95814286,8.3584898 9.96916327,8.38420408 9.97528571,8.41073469 C10.0250816,8.62930612 9.91487755,8.81665306 9.69610204,8.88828571 C9.54385714,8.93869388 9.39161224,8.90093878 9.28242857,8.78522449 L8.79508163,8.02012245 L7.40467347,8.47073469 L7.41834694,9.34604082 C7.41834694,9.37032653 7.4154898,9.39481633 7.40834694,9.41767347 C7.34344898,9.62706122 7.211,9.70910204 7.11202041,9.74114286 C7.07140816,9.75420408 7.03079592,9.76093878 6.98936735,9.76093878 C6.94610204,9.76093878 6.90202041,9.75318367 6.85957143,9.73787755 C6.75957143,9.70277551 6.68385714,9.6217551 6.64957143,9.51134694 C6.64242857,9.48930612 6.63079592,9.44236735 6.63079592,9.4195102 L6.62712245,6.84114286 C6.62630612,6.59971429 6.62712245,6.3784898 6.63161224,6.17583673 M9.46079592,4.5895102 C9.54916327,4.42359184 9.67344898,4.27583673 9.83120408,4.14930612 C9.98528571,4.02502041 10.1726327,3.9262449 10.3863061,3.85685714 C10.7575306,3.74032653 11.1044694,3.7617551 11.4197755,3.9195102 C11.7350816,4.07093878 11.9656939,4.33706122 12.1018163,4.71012245 C12.1081429,4.72910204 12.1126327,4.74889796 12.1144694,4.76910204 C12.1387551,5.0462449 11.9954898,5.17155102 11.9081429,5.22155102 C11.6377347,5.30665306 11.4503878,5.21604082 11.3603878,5.00746939 C11.3593673,5.0062449 11.3593673,5.00440816 11.358551,5.00297959 C11.3287551,4.9295102 11.2899796,4.85971429 11.2430408,4.7962449 C11.1997755,4.73767347 11.1503878,4.69073469 11.0899796,4.65297959 C11.0332449,4.61685714 10.9665102,4.59359184 10.8899796,4.58257143 C10.8214082,4.57359184 10.7314082,4.584 10.6332449,4.61563265 C10.3971224,4.68359184 10.2565102,4.78583673 10.1944694,4.93012245 C10.1169184,5.094 10.1124286,5.2417551 10.1773265,5.40297959 C10.1952857,5.44502041 10.2222245,5.48869388 10.2546735,5.52971429 C10.2771224,5.55706122 10.3177347,5.58604082 10.3718163,5.61155102 C10.4332449,5.64093878 10.5214082,5.664 10.6322245,5.67910204 C10.7567143,5.69542857 10.916102,5.70134694 11.1044694,5.69277551 C11.3944694,5.67481633 11.6405918,5.69461224 11.8395714,5.75257143 C12.0424286,5.81032653 12.2126327,5.89277551 12.346102,5.99787755 C12.4793673,6.1017551 12.5838571,6.22522449 12.6550816,6.364 C12.7189592,6.48522449 12.765898,6.60461224 12.7983469,6.72808163 C12.8289592,6.85502041 12.8379388,6.98706122 12.8263061,7.124 C12.8154898,7.26828571 12.7722245,7.41338776 12.6991633,7.55338776 C12.6279388,7.69114286 12.523449,7.82053061 12.3901837,7.93767347 C12.2595714,8.054 12.0883469,8.15114286 11.8838571,8.22522449 C11.691,8.29502041 11.5026327,8.32971429 11.3250816,8.32971429 C11.2944694,8.32971429 11.2648776,8.32869388 11.235898,8.32706122 C11.0340612,8.314 10.8440612,8.26338776 10.6718163,8.17644898 C10.4997755,8.08910204 10.3501837,7.96746939 10.225898,7.81461224 C10.1050816,7.66502041 10.0124286,7.49216327 9.95018367,7.29971429 C9.91406122,7.00828571 10.028551,6.89297959 10.0987551,6.84604082 C10.2277347,6.75787755 10.3456939,6.75991837 10.4187551,6.77808163 C10.5205918,6.79604082 10.6150816,6.86461224 10.6907959,6.9795102 C10.7512041,7.12134694 10.7989592,7.20971429 10.8567143,7.28542857 C10.9089592,7.35644898 10.9691633,7.41053061 11.0403878,7.45195918 C11.1079388,7.49073469 11.1899796,7.51420408 11.2844694,7.52093878 C11.3783469,7.5295102 11.4981429,7.51155102 11.6297755,7.46869388 C11.745898,7.43134694 11.8369184,7.38542857 11.891,7.33583673 C11.9440612,7.28706122 11.9820204,7.23767347 12.0018163,7.19032653 C12.0226327,7.14114286 12.0332449,7.09604082 12.0332449,7.05644898 C12.0332449,7.00155102 12.0305918,6.95644898 12.0242653,6.92053061 C11.9938571,6.78706122 11.9144694,6.68297959 11.7775306,6.60277551 C11.6279388,6.51665306 11.3907959,6.48440816 11.0638571,6.50808163 C10.6997755,6.53828571 10.3744694,6.49644898 10.093449,6.38338776 C9.78712245,6.2595102 9.561,6.02889796 9.42038776,5.69767347 C9.34018367,5.51297959 9.3032449,5.32073469 9.31304082,5.12828571 C9.32304082,4.93869388 9.37263265,4.75706122 9.46079592,4.5895102 M12.4801837,3.61053061 C12.5677347,3.44563265 12.6920204,3.29746939 12.8495714,3.17032653 C13.0056939,3.04502041 13.1922245,2.94685714 13.4054898,2.87787755 C13.7777347,2.75991837 14.1246735,2.78236735 14.4391633,2.94093878 C14.7544694,3.09195918 14.9850816,3.35808163 15.1212041,3.73114286 C15.1275306,3.75012245 15.1320204,3.76991837 15.1338571,3.79032653 C15.1581429,4.06726531 15.0148776,4.19257143 14.9275306,4.24257143 C14.6571224,4.3284898 14.4687551,4.23665306 14.3795714,4.0284898 C14.3787551,4.02726531 14.3787551,4.02542857 14.3779388,4.024 C14.3481429,3.95053061 14.3093673,3.88073469 14.2626327,3.81726531 C14.2193673,3.75869388 14.1697755,3.7117551 14.1093673,3.674 C14.0526327,3.63808163 13.985898,3.61440816 13.9093673,3.60379592 C13.8381429,3.59277551 13.7497755,3.60542857 13.6516122,3.63665306 C13.4165102,3.70461224 13.275898,3.80685714 13.2138571,3.95114286 C13.1352857,4.11502041 13.1318163,4.26195918 13.1975306,4.42277551 C13.2154898,4.46644898 13.2416122,4.50971429 13.2740612,4.55073469 C13.2965102,4.57808163 13.3371224,4.60706122 13.3912041,4.63277551 C13.4524286,4.66236735 13.5407959,4.68481633 13.6516122,4.69930612 C13.7724286,4.71604082 13.931,4.72012245 14.1238571,4.71338776 C14.4138571,4.69522449 14.6607959,4.71644898 14.8589592,4.77359184 C15.0618163,4.83134694 15.2320204,4.91379592 15.3654898,5.01889796 C15.4987551,5.12318367 15.6032449,5.24665306 15.6752857,5.38563265 C15.7393673,5.5084898 15.7879388,5.63155102 15.8177347,5.75053061 C15.8483469,5.87604082 15.8573265,6.00808163 15.8456939,6.14502041 C15.8348776,6.28869388 15.7916122,6.43338776 15.718551,6.574 C15.6473265,6.71195918 15.5438571,6.84073469 15.4103878,6.95828571 C15.2779388,7.07542857 15.1067143,7.17216327 14.9030408,7.2462449 C14.7103878,7.31604082 14.5220204,7.35073469 14.3444694,7.35073469 C14.3138571,7.35073469 14.2840612,7.34971429 14.2552857,7.34787755 C14.0526327,7.33481633 13.8624286,7.284 13.6903878,7.19706122 C13.5183469,7.10910204 13.3687551,6.98767347 13.2452857,6.83481633 C13.1244694,6.68665306 13.0316122,6.51359184 12.9695714,6.32073469 C12.933449,6.02930612 13.0479388,5.914 13.1181429,5.86706122 C13.2442653,5.78012245 13.3605918,5.78012245 13.4363061,5.79808163 C13.5416122,5.81808163 13.6352857,5.88644898 13.7101837,6.00053061 C13.7705918,6.14277551 13.8175306,6.22889796 13.875898,6.30685714 C13.9283469,6.37706122 13.988551,6.43155102 14.0605918,6.47318367 C14.1283469,6.51236735 14.2093673,6.53522449 14.3040612,6.54195918 C14.4012041,6.55236735 14.5193673,6.53155102 14.6491633,6.48971429 C14.7679388,6.45134694 14.8552857,6.4062449 14.9103878,6.35685714 C14.963449,6.30828571 15.0014082,6.25869388 15.0212041,6.21134694 C15.0420204,6.16216327 15.0526327,6.11706122 15.0526327,6.07746939 C15.0526327,6.02257143 15.0499796,5.97706122 15.0436531,5.94093878 C15.0130408,5.80808163 14.9338571,5.704 14.7967143,5.62379592 C14.6481429,5.53726531 14.4067143,5.50440816 14.0832449,5.52930612 C13.7138571,5.5595102 13.3912041,5.51665306 13.1120204,5.404 C12.8065102,5.28093878 12.5803878,5.05032653 12.4397755,4.71869388 C12.3595714,4.53359184 12.3226327,4.34114286 12.3324286,4.14930612 C12.3424286,3.95971429 12.3920204,3.77808163 12.4801837,3.61053061 M22.9395714,20.4793061 L16.8528367,1.70767347 C16.5267143,0.702367347 15.5942653,0.0627755102 14.5916122,0.0627755102 C14.348551,0.0627755102 14.1016122,0.100326531 13.8577347,0.179306122 L1.64487755,4.1395102 C0.395693878,4.54440816 -0.288387755,5.88542857 0.116510204,7.13440816 L6.2032449,25.9060408 C6.52936735,26.911551 7.46161224,27.5509388 8.46446939,27.5509388 C8.70732653,27.5509388 8.95467347,27.5133878 9.19834694,27.4346122 L21.4112041,23.4744082 C22.6603878,23.0695102 23.3444694,21.7284898 22.9395714,20.4793061" id="Fill-22"></path>
            </g>
            <path d="M9.4077551,19.3471224 L7.46836735,19.976102 C7.9255102,21.0777347 8.69469388,21.9720204 9.64122449,22.5854898 L11.137551,22.1001837 C10.4759184,21.4222245 9.85632653,20.5214082 9.4077551,19.3471224" id="Fill-25" fill="#1CD19C"></path>
            <path d="M9.58404082,13.02 C9.01853061,13.3979592 8.52465306,13.8655102 8.12444898,14.422449 L9.16587755,14.0846939 C9.28934694,13.6853061 9.4342449,13.3314286 9.58404082,13.02" id="Fill-27" fill="#8C8C8C"></path>
            <path d="M14.5821429,12.3286327 C14.0015306,12.1343469 13.3890816,12.0276122 12.7641837,12.0276122 C12.6890816,12.0276122 12.6131633,12.0423061 12.5378571,12.0453673 C12.847449,12.2114898 13.1792857,12.4161837 13.5209184,12.6729184 L14.5821429,12.3286327 Z" id="Fill-29" fill="#8C8C8C"></path>
            <path d="M16.1285102,16.198102 L18.0544286,15.5734082 C17.5807551,14.4344286 16.7783061,13.5219796 15.7868776,12.907898 L14.3313673,13.3799388 C15.017898,14.0658571 15.6648367,14.9842245 16.1285102,16.198102" id="Fill-31" fill="#1CD19C"></path>
            <path d="M11.0232653,12.3962857 C10.8377551,12.6442449 10.5381633,13.0997551 10.2755102,13.7250612 L12.3965306,13.0373061 C11.8212245,12.6879184 11.3134694,12.4889388 11.0232653,12.3962857" id="Fill-33" fill="#1CD19C"></path>
        </g>
    </g>
</svg>