<?xml version="1.0" encoding="UTF-8"?>
<svg width="42px" height="42px" viewBox="0 0 42 42" version="1.1" xmlns="http://www.w3.org/2000/svg" xmlns:xlink="http://www.w3.org/1999/xlink">
    <!-- Generator: Sketch 41 (35326) - http://www.bohemiancoding.com/sketch -->
    <title>Slice 3 Copy 2</title>
    <desc>Created with Sketch.</desc>
    <defs></defs>
    <g id="Main-page" stroke="none" stroke-width="1" fill="none" fill-rule="evenodd">
        <g id="Page-1-Copy-6" transform="translate(7.000000, 6.000000)">
            <path d="M21.0567887,15.047831 L23.3180845,15.047831 L23.3180845,12.7865352 L21.0567887,12.7865352 L21.0567887,15.047831 Z M21.0567887,19.1460845 L23.3180845,19.1460845 L23.3180845,16.8847887 L21.0567887,16.8847887 L21.0567887,19.1460845 Z M21.0567887,23.2441408 L23.3180845,23.2441408 L23.3180845,20.9828451 L21.0567887,20.9828451 L21.0567887,23.2441408 Z M16.8983944,10.9495775 L19.1596901,10.9495775 L19.1596901,8.68828169 L16.8983944,8.68828169 L16.8983944,10.9495775 Z M16.8983944,15.047831 L19.1596901,15.047831 L19.1596901,12.7865352 L16.8983944,12.7865352 L16.8983944,15.047831 Z M16.8983944,19.1460845 L19.1596901,19.1460845 L19.1596901,16.8847887 L16.8983944,16.8847887 L16.8983944,19.1460845 Z M16.8983944,23.2441408 L19.1596901,23.2441408 L19.1596901,20.9828451 L16.8983944,20.9828451 L16.8983944,23.2441408 Z M12.828338,10.9495775 L15.0896338,10.9495775 L15.0896338,8.68828169 L12.828338,8.68828169 L12.828338,10.9495775 Z M12.828338,15.047831 L15.0896338,15.047831 L15.0896338,12.7865352 L12.828338,12.7865352 L12.828338,15.047831 Z M12.828338,19.1460845 L15.0896338,19.1460845 L15.0896338,16.8847887 L12.828338,16.8847887 L12.828338,19.1460845 Z M12.828338,23.2441408 L15.0896338,23.2441408 L15.0896338,20.9828451 L12.828338,20.9828451 L12.828338,23.2441408 Z M8.75828169,10.9495775 L11.0195775,10.9495775 L11.0195775,8.68828169 L8.75828169,8.68828169 L8.75828169,10.9495775 Z M8.75828169,15.047831 L11.0195775,15.047831 L11.0195775,12.7865352 L8.75828169,12.7865352 L8.75828169,15.047831 Z M8.75828169,19.1460845 L11.0195775,19.1460845 L11.0195775,16.8847887 L8.75828169,16.8847887 L8.75828169,19.1460845 Z M8.75828169,23.2441408 L11.0195775,23.2441408 L11.0195775,20.9828451 L8.75828169,20.9828451 L8.75828169,23.2441408 Z M4.59969014,15.047831 L6.86098592,15.047831 L6.86098592,12.7865352 L4.59969014,12.7865352 L4.59969014,15.047831 Z M4.59969014,19.1460845 L6.86098592,19.1460845 L6.86098592,16.8847887 L4.59969014,16.8847887 L4.59969014,19.1460845 Z M4.59969014,23.2441408 L6.86098592,23.2441408 L6.86098592,20.9828451 L4.59969014,20.9828451 L4.59969014,23.2441408 Z M27.0263099,26.3048169 L25.3094366,26.3048169 L25.3094366,10.9495775 C25.3094366,10.6242254 25.0456056,10.3609859 24.7210423,10.3609859 L21.6451831,10.3609859 L21.6451831,6.26707042 C21.6451831,5.94191549 21.3813521,5.67847887 21.0567887,5.67847887 L6.86098592,5.67847887 C6.53642254,5.67847887 6.27259155,5.94191549 6.27259155,6.26707042 L6.27259155,10.3609859 L3.19673239,10.3609859 C2.87197183,10.3609859 2.60833803,10.6242254 2.60833803,10.9495775 L2.60833803,26.3048169 L0.891464789,26.3048169 C0.398704225,26.3048169 0,26.7039155 0,27.1962817 C0,27.6884507 0.398704225,28.0877465 0.891464789,28.0877465 L11.3597183,28.0877465 L11.3597183,25.0887887 L16.5582535,25.0887887 L16.5582535,28.0877465 L27.0263099,28.0877465 C27.5190704,28.0877465 27.9177746,27.6884507 27.9177746,27.1962817 C27.9177746,26.7039155 27.5190704,26.3048169 27.0263099,26.3048169 L27.0263099,26.3048169 Z" id="Fill-1" fill="#8C8C8C"></path>
            <polygon id="Fill-3" fill="#1CD19C" points="6.77312113 4.7194 8.3076 3.91647042 9.83833239 4.72748451 9.54906479 3.01790704 10.7911211 1.81055493 9.07819155 1.55678028 8.31509296 1.9718309e-05 7.54568451 1.55283662 5.8319662 1.79754085 7.06948732 3.0114"></polygon>
            <polygon id="Fill-4" fill="#1CD19C" points="12.4204648 4.7194 13.9549437 3.91647042 15.4856761 4.72748451 15.1964085 3.01790704 16.4382676 1.81055493 14.725338 1.55678028 13.9624366 1.9718309e-05 13.1930282 1.55283662 11.4793099 1.79754085 12.716831 3.0114"></polygon>
            <polygon id="Fill-5" fill="#1CD19C" points="18.0677296 4.7194 19.6024056 3.91647042 21.133138 4.72748451 20.8436732 3.01790704 22.0857296 1.81055493 20.3728 1.55678028 19.6098986 1.9718309e-05 18.840293 1.55283662 17.1267718 1.79754085 18.3640958 3.0114"></polygon>
        </g>
    </g>
</svg>