<?xml version="1.0" encoding="UTF-8"?>
<svg width="42px" height="42px" viewBox="0 0 42 42" version="1.1" xmlns="http://www.w3.org/2000/svg" xmlns:xlink="http://www.w3.org/1999/xlink">
    <!-- Generator: Sketch 41 (35326) - http://www.bohemiancoding.com/sketch -->
    <title>Slice 3 Copy 3</title>
    <desc>Created with Sketch.</desc>
    <defs></defs>
    <g id="Main-page" stroke="none" stroke-width="1" fill="none" fill-rule="evenodd">
        <g id="Page-1-Copy-9" transform="translate(4.000000, 12.000000)" fill="#8C8C8C">
            <path d="M32.7509098,0.813937306 C32.4759668,0.381175648 31.9595938,0.170864767 31.1723813,0.170864767 C30.6763554,0.170864767 30.1762259,0.253450259 29.7742415,0.319963212 C29.6133451,0.346465803 29.3932881,0.382885492 29.3266041,0.383740415 C29.1780187,0.350227461 29.0013917,0.364077202 28.7637233,0.427854404 C28.414744,0.521211917 28.052428,0.695787047 28.0488373,0.697496891 L19.3823192,5.18549689 L11.5618321,4.54704093 C11.5074591,4.54310829 11.453599,4.55114456 11.4038425,4.57183368 L10.0657181,5.12308756 C9.94602902,5.17233109 9.86532435,5.2833 9.85506528,5.41239326 C9.8449772,5.54148653 9.90721554,5.66356943 10.0178425,5.73127927 L14.0101585,8.16883368 L9.54866114,10.6024554 L8.54908601,11.0666782 L7.88617927,11.1518285 L2.10297202,9.1244658 C1.95336062,9.07556425 1.76493575,9.08719119 1.47853679,9.16379223 C1.20085803,9.23851244 0.879920207,9.36162124 0.617801036,9.4621601 C0.481868394,9.51431036 0.341490155,9.56834145 0.286946114,9.58304611 C0.174780311,9.61296839 0.0833036269,9.69179223 0.0361119171,9.7988285 C0.00140207254,9.87765233 -0.080157513,10.0618026 0.229666321,10.6602482 C0.254972021,10.7093207 0.292246632,10.7517249 0.337386528,10.783528 L7.58199793,15.8515073 C7.67039689,15.9132326 7.78598238,15.9296472 7.88788912,15.8951083 C8.03151606,15.8463777 11.420257,14.6971912 12.6766508,14.1295228 C13.4262466,13.7909736 15.1075368,12.8385902 16.0930912,12.2717767 L15.401972,17.1017456 C15.3841896,17.2265642 15.4359979,17.350528 15.5373917,17.4254192 C15.5968943,17.4691912 15.6669979,17.4921031 15.7406922,17.4921031 C15.7704435,17.4921031 15.8001948,17.4883415 15.8289202,17.4806472 C15.8489254,17.4751756 15.8685886,17.4681653 15.886713,17.4594451 L17.5864694,16.6563311 C17.6493917,16.6265798 17.701029,16.5790461 17.7360808,16.5188596 L22.0563451,9.08531036 C22.7312207,8.68076114 26.0254073,6.71067824 27.1477492,6.11633627 C27.9298321,5.70255389 29.8043347,4.55097358 30.6077907,4.05734145 L30.6189047,4.05050207 C30.8093813,3.9335487 30.9736974,3.83249689 30.9964383,3.81933109 C31.0121689,3.81078187 32.6009565,2.74366788 32.8707699,1.68099948 C32.9514746,1.36365233 32.9100964,1.06391658 32.7509098,0.813937306" id="Fill-1"></path>
        </g>
    </g>
</svg>