<?xml version="1.0" encoding="UTF-8"?>
<svg width="42px" height="42px" viewBox="0 0 42 42" version="1.1" xmlns="http://www.w3.org/2000/svg" xmlns:xlink="http://www.w3.org/1999/xlink">
    <!-- Generator: Sketch 41 (35326) - http://www.bohemiancoding.com/sketch -->
    <title>Slice 3 Copy 4</title>
    <desc>Created with Sketch.</desc>
    <defs></defs>
    <g id="Main-page" stroke="none" stroke-width="1" fill="none" fill-rule="evenodd">
        <g id="Group-25-Copy" transform="translate(8.000000, 6.000000)">
            <g id="Group-22" transform="translate(0.000000, 3.853488)" fill="#8C8C8C">
                <path d="M12.1789235,23.6812401 C5.82636941,23.6812401 0.676606859,18.5314775 0.676606859,12.1789235 C0.676606859,5.82636941 5.82636941,0.676606859 12.1789235,0.676606859 C18.5314775,0.676606859 23.6812401,5.82636941 23.6812401,12.1789235 C23.6812401,18.5314775 18.5314775,23.6812401 12.1789235,23.6812401 Z M12.1789235,24.3578469 C18.9051572,24.3578469 24.3578469,18.9051572 24.3578469,12.1789235 C24.3578469,5.45268976 18.9051572,0 12.1789235,0 C5.45268976,0 0,5.45268976 0,12.1789235 C0,18.9051572 5.45268976,24.3578469 12.1789235,24.3578469 Z" id="Oval-9" stroke="#8C8C8C" stroke-width="0.2"></path>
                <path d="M12.7339894,24.4685871 C15.4726412,22.1830547 17.217864,17.5973729 17.217864,12.5116098 C17.217864,7.7918276 15.7157125,3.48889404 13.2866854,1.06054724 L12.8083191,1.53904754 C15.0994226,3.82950935 16.5412572,7.95966418 16.5412572,12.5116098 C16.5412572,17.4116337 14.8690239,21.805531 12.3004644,23.9491133 L12.7339894,24.4685871 Z" id="Oval-9-Copy" stroke="#8C8C8C" stroke-width="0.2"></path>
                <path d="M12.7339894,23.9491133 C10.1654299,21.805531 8.49319662,17.4116337 8.49319662,12.5116098 C8.49319662,7.95966418 9.9350312,3.82950935 12.2261347,1.53904754 L11.7477684,1.06054724 C9.31874129,3.48889404 7.81658977,7.7918276 7.81658977,12.5116098 C7.81658977,17.5973729 9.56181256,22.1830547 12.3004644,24.4685871 L12.7339894,23.9491133 Z" id="Oval-9-Copy-2" stroke="#8C8C8C" stroke-width="0.2"></path>
                <path d="M20.1527186,22.2567691 C18.636134,19.903526 15.6933715,18.4108287 12.4405914,18.4108287 C9.20829644,18.4108287 6.28123884,19.8846929 4.75590122,22.2145305 L5.32197989,22.5851405 C6.71804242,20.4527608 9.42954437,19.0874356 12.4405914,19.0874356 C15.4705557,19.0874356 18.1962933,20.4700484 19.583988,22.6232965 L20.1527186,22.2567691 Z" id="Oval-10-Copy-2" stroke="#8C8C8C" stroke-width="0.2"></path>
                <path d="M4.75457525,3.4008752 C6.27115989,5.75411826 9.21392245,7.24681557 12.4667025,7.24681557 C15.6989975,7.24681557 18.6260551,5.77295137 20.1513927,3.44311383 L19.585314,3.07250383 C18.1892515,5.20488346 15.4777495,6.57020871 12.4667025,6.57020871 C9.43673821,6.57020871 6.71100059,5.1875959 5.32330586,3.03434779 L4.75457525,3.4008752 Z" id="Oval-10-Copy-3" stroke="#8C8C8C" stroke-width="0.2"></path>
                <polygon id="Line" points="0.649898693 13.1671256 24.4182165 13.1671256 24.4182165 12.4905187 0.649898693 12.4905187"></polygon>
            </g>
            <path d="M20.2982058,11.2961629 C20.2982058,11.2961629 23.6812401,6.247029 23.6812401,4.19179093 C23.6812401,2.13655286 22.0151404,0.470453207 19.9599023,0.470453207 C17.9046643,0.470453207 16.2385646,2.13655286 16.2385646,4.19179093 C16.2385646,6.247029 20.2982058,11.2961629 20.2982058,11.2961629 Z M19.9599023,5.88330808 C20.8941015,5.88330808 21.6514195,5.12599006 21.6514195,4.19179093 C21.6514195,3.25759181 20.8941015,2.50027378 19.9599023,2.50027378 C19.0257032,2.50027378 18.2683852,3.25759181 18.2683852,4.19179093 C18.2683852,5.12599006 19.0257032,5.88330808 19.9599023,5.88330808 Z" id="Combined-Shape" fill="#1CD19C"></path>
            <path d="M5.35134516,21.4452658 C5.35134516,21.4452658 8.11928231,17.3428445 8.11928231,15.6729636 C8.11928231,14.0030826 6.75610987,12.6493767 5.07455144,12.6493767 C3.39299302,12.6493767 2.02982058,14.0030826 2.02982058,15.6729636 C2.02982058,17.3428445 5.35134516,21.4452658 5.35134516,21.4452658 Z M5.07455144,17.0473213 C5.83889618,17.0473213 6.45852002,16.4320004 6.45852002,15.6729636 C6.45852002,14.9139268 5.83889618,14.2986059 5.07455144,14.2986059 C4.3102067,14.2986059 3.69058287,14.9139268 3.69058287,15.6729636 C3.69058287,16.4320004 4.3102067,17.0473213 5.07455144,17.0473213 Z" id="Combined-Shape-Copy" fill="#1CD19C"></path>
        </g>
    </g>
</svg>