<?xml version="1.0" encoding="UTF-8"?>
<svg width="42px" height="42px" viewBox="0 0 42 42" version="1.1" xmlns="http://www.w3.org/2000/svg" xmlns:xlink="http://www.w3.org/1999/xlink">
    <!-- Generator: Sketch 41 (35326) - http://www.bohemiancoding.com/sketch -->
    <title>Slice 3</title>
    <desc>Created with Sketch.</desc>
    <defs>
        <polygon id="path-1" points="23.4026109 22.737464 23.4026109 5.91003177e-15 0 0 0 22.737464 23.4026109 22.737464"></polygon>
        <polygon id="path-3" points="1.47750794e-15 10.0079599 8.12369587 10.0079599 8.12369587 0 0 0 0 10.0079599"></polygon>
    </defs>
    <g id="Main-page" stroke="none" stroke-width="1" fill="none" fill-rule="evenodd">
        <g id="Page-1-Copy-4" transform="translate(9.000000, 5.000000)">
            <g id="Group-3" transform="translate(0.000000, 0.015336)">
                <mask id="mask-2" fill="white">
                    <use xlink:href="#path-1"></use>
                </mask>
                <g id="Clip-2"></g>
                <path d="M18.9657787,11.7222334 L18.9658047,11.7222334 C18.9560765,12.390384 18.8725027,13.0274256 18.7174243,13.6159561 C18.2886307,15.2431896 17.4187142,16.5942156 16.1318911,17.6315532 C14.9475,18.5862989 13.5765309,19.1169482 12.0570642,19.2087764 C11.9316905,19.2163529 11.8044441,19.2202081 11.6787582,19.2202081 C10.9469349,19.2202081 10.1971118,19.0893997 9.45007187,18.8313705 C7.18364335,18.0485818 5.42549849,16.1603473 4.74699794,13.7803098 C4.55334502,13.1009684 4.45562117,12.4046803 4.45655757,11.7108552 L4.45655757,11.7084725 C4.45562117,11.0146206 4.55334502,10.3183593 4.74699794,9.63901788 C5.42549849,7.25898042 7.18366936,5.37071919 9.45007187,4.58793049 C10.1971118,4.32992801 10.9469349,4.19911965 11.6787582,4.19911965 C11.8044441,4.19911965 11.9317166,4.20294805 12.0570642,4.21052455 C13.5765309,4.30235277 14.9475,4.83300207 16.1318911,5.78774781 C17.4187142,6.8250854 18.2886307,8.17613816 18.7174243,9.80334488 C18.8725027,10.3919022 18.9560765,11.0289437 18.9658047,11.6970944 L18.9657787,11.6970944 L18.9656486,11.7075087 L18.9677035,11.7096505 L18.9656486,11.7117922 L18.9657787,11.7222334 Z M23.4193277,11.7056347 C23.4192237,11.6994771 23.4190936,11.6932927 23.4189116,11.6871084 C23.4190156,11.6908833 23.4190936,11.6948723 23.4191457,11.6988346 L23.4052817,11.699022 L23.3962559,11.6896517 L23.4189376,11.6892769 C23.4148018,11.4209404 23.3836665,11.1407707 23.3263639,10.8566119 C23.2114987,10.2869824 22.9314368,9.761045 22.4702333,9.24862749 C22.3624952,9.12898308 22.2539507,9.01584429 22.1489958,8.90645359 C22.086569,8.84139745 22.0276018,8.77992877 21.9693888,8.71779078 C21.9129447,8.65752684 21.8184462,8.55667643 21.7985737,8.51220802 C21.6189148,8.1098505 21.586843,7.75321969 21.6975724,7.38989586 C21.8292929,6.95779457 21.8534312,6.50540005 21.7693372,6.04529517 C21.6214118,5.23597534 21.222427,4.52975477 20.5834374,3.94620385 C20.0237297,3.43504463 19.386977,3.1758374 18.690945,3.17581062 C18.6569224,3.17581062 18.6223536,3.17645315 18.588175,3.17771144 C18.5805017,3.17800593 18.5738688,3.1781398 18.5683805,3.17816657 C17.8998162,3.04476132 17.5013255,2.71198443 17.2777598,2.10117953 C17.1527503,1.75972849 16.9941083,1.47597127 16.7927301,1.23371076 C16.3317087,0.67904691 15.7318658,0.304425265 15.0097966,0.120206617 C14.6971688,0.0404526053 14.3938529,0 14.1083546,0 C13.4595068,0 12.8662968,0.204833146 12.3451896,0.608796985 C12.1809033,0.736178518 11.9778343,0.800752763 11.7415751,0.800752763 C11.7169426,0.800752763 11.6917378,0.800003145 11.666611,0.798584225 C11.3951588,0.783056422 11.1660267,0.697974767 10.9661051,0.538466744 C10.6737919,0.305228427 10.3473781,0.150967731 9.99586359,0.0799414159 C9.74475206,0.0292083338 9.49436884,0.00348036975 9.25165891,0.00348036975 C8.36600566,0.00345359767 7.55882801,0.334918658 6.85259959,0.988719502 C6.51619754,1.30013228 6.27239514,1.68784547 6.12800731,2.14106993 C6.0193848,2.48206585 5.79899242,2.74539597 5.43442031,2.96971919 C5.20154258,3.11303011 4.96184994,3.18269105 4.70163452,3.18269105 C4.69055377,3.18269105 4.67944701,3.18255719 4.66826223,3.18231624 C4.6520833,3.18194143 4.63603442,3.1817808 4.62003757,3.1817808 C4.18505331,3.1817808 3.75423082,3.31293719 3.33953524,3.57163575 C2.93885967,3.82157985 2.5979837,4.13312648 2.32634938,4.49768183 C2.05656185,4.85974737 1.85245245,5.27768623 1.7196916,5.73987934 C1.55779827,6.30351183 1.55602952,6.84821647 1.71441134,7.3588938 C1.77782649,7.56335214 1.7965285,7.76556162 1.77158382,7.97708778 C1.7320729,8.31192613 1.63741837,8.53632966 1.46462638,8.70464569 C1.30413765,8.86096784 1.15746084,9.02044909 1.0155961,9.17468301 L0.969426324,9.22485388 C0.751739107,9.46114422 0.567372158,9.71580019 0.421423661,9.98172721 C0.138942698,10.4964471 -0.0028440173,11.0778027 4.32190622e-05,11.7096505 C-0.0028440173,12.3414982 0.138942698,12.9228538 0.421423661,13.4375737 C0.567372158,13.7035275 0.751765118,13.9581835 0.969426324,14.1945006 L1.01575216,14.2448053 C1.15756489,14.3989857 1.30421569,14.5583867 1.46462638,14.714682 C1.63741837,14.8829981 1.7320729,15.1073748 1.77158382,15.4422132 C1.7965285,15.6537393 1.77782649,15.8559488 1.71441134,16.0604339 C1.55602952,16.5710845 1.55779827,17.1157891 1.7196916,17.6794216 C1.85245245,18.1416415 2.05656185,18.5595536 2.32634938,18.9216459 C2.5979837,19.2861745 2.93885967,19.5977211 3.33953524,19.8476652 C3.75423082,20.1063638 4.1850273,20.2375469 4.62001156,20.2375469 C4.63600841,20.2375469 4.65205729,20.2373595 4.66813217,20.2369847 C4.67944701,20.2367438 4.69055377,20.2366099 4.7016085,20.2366099 C4.96182393,20.2366099 5.20154258,20.3062709 5.43442031,20.4496085 C5.79899242,20.6739318 6.0193848,20.9372351 6.12800731,21.278231 C6.27239514,21.7314555 6.51619754,22.1191687 6.85259959,22.4306082 C7.558802,23.0843555 8.36595364,23.4158474 9.2516329,23.4158474 C9.49434283,23.4158474 9.74475206,23.3901194 9.99586359,23.3393595 C10.3473781,23.26836 10.6737919,23.1140725 10.9661051,22.8808342 C11.1660267,22.7213262 11.3951588,22.6362713 11.666611,22.6207435 C11.6917378,22.6192978 11.7169686,22.618575 11.7415751,22.618575 C11.9778343,22.618575 12.1809033,22.683176 12.3451896,22.810504 C12.8662707,23.2144678 13.4594808,23.4193277 14.1083286,23.4193277 C14.3938529,23.4193277 14.6971688,23.3788484 15.0098226,23.2990943 C15.7318658,23.1148757 16.3317087,22.740254 16.7927301,22.185617 C16.9941083,21.9433565 17.1527503,21.6595992 17.2777598,21.3181214 C17.5013255,20.7073433 17.8997902,20.3745396 18.5683805,20.2411344 C18.5738688,20.2411612 18.5805017,20.2413218 18.588227,20.2415895 C18.6225357,20.2428746 18.6570524,20.2435171 18.690945,20.2435171 C19.386951,20.2435171 20.0237037,19.9843099 20.5834374,19.4730971 C21.222427,18.889573 21.6214118,18.1833256 21.7693372,17.3740326 C21.8534312,16.9139009 21.8292929,16.4615064 21.6975724,16.0294319 C21.586817,15.6660813 21.6189148,15.3094772 21.7985737,14.9071197 C21.8184462,14.8626245 21.9129447,14.7617741 21.9693888,14.7015369 C22.0276278,14.6393454 22.086595,14.5779035 22.1490478,14.5128206 C22.2540027,14.4034299 22.3625212,14.2903179 22.4702333,14.1706735 C22.9314368,13.6582827 23.2114987,13.1323185 23.3263639,12.5627426 C23.3836665,12.2785303 23.4148018,11.9983873 23.4189376,11.7300508 L23.3962559,11.729676 L23.4052557,11.720279 L23.4191457,11.7204664 C23.4190936,11.7244554 23.4190156,11.7284177 23.4188855,11.7324067 C23.4190936,11.726035 23.4192237,11.7198239 23.4193277,11.7136663 L23.4154521,11.7096505 L23.4193277,11.7056347 Z" id="Fill-1" fill="#1CD19C" mask="url(#mask-2)"></path>
            </g>
            <path d="M11.7096639,5.65294118 C8.36462739,5.65294118 5.65294118,8.36465369 5.65294118,11.7096639 C5.65294118,15.0547267 8.36462739,17.7663866 11.7096639,17.7663866 C15.0547003,17.7663866 17.7663866,15.0547267 17.7663866,11.7096639 C17.7663866,8.36465369 15.0547003,5.65294118 11.7096639,5.65294118" id="Fill-4" fill="#8C8C8C"></path>
            <path d="M11.8955766,23.2683999 C11.8687523,23.2617458 11.8369373,23.2584187 11.7999499,23.2584187 C11.789033,23.2584187 11.7777522,23.2586007 11.7661075,23.2593285 C11.64493,23.2660086 11.5587646,23.2956141 11.4784735,23.3579184 C11.4436954,23.3847687 11.4085534,23.4109952 11.3730475,23.4361821 L11.2653862,23.4707522 C11.1473798,23.5088574 11.0543523,23.5806489 11.0051483,23.6618498 C10.7506288,23.7941001 10.4807477,23.8887911 10.1981302,23.9442853 C9.90033309,24.0027167 9.60217203,24.0323222 9.31193872,24.0323222 C8.77701113,24.0323222 8.25892673,23.9339143 7.77172154,23.7395157 C7.2909885,23.5475084 6.83596214,23.2604461 6.41979471,22.8860748 C6.31361496,22.79063 6.21466115,22.6894668 6.12290729,22.5829232 L3.35469597,30.1080652 C3.32288103,30.2074089 3.37613986,30.3244796 3.49175492,30.4088255 C3.53760586,30.442304 3.58995494,30.4681926 3.64453939,30.4857636 C3.72813157,30.5127699 3.81710423,30.5197879 3.89682351,30.5039064 L6.78603037,29.9247654 L8.79754528,32.077992 C8.85192178,32.1362414 8.92795012,32.183054 9.01304988,32.2102423 L9.0627997,32.2263317 C9.26866105,32.2923529 9.47267693,32.2303866 9.51837191,32.0879731 L11.7457553,26.2467613 L12.5721899,23.6738584 L11.8955766,23.2683999 Z" id="Fill-6" fill="#8C8C8C"></path>
            <g id="Group-10" transform="translate(12.216519, 22.472937)">
                <mask id="mask-4" fill="white">
                    <use xlink:href="#path-3"></use>
                </mask>
                <g id="Clip-9"></g>
                <path d="M5.23781972,0 C4.67921287,0.638508086 3.96134939,1.06985519 3.10289197,1.28257859 C2.73241952,1.37451439 2.36935496,1.42111912 2.0241733,1.42111912 C1.71889028,1.42111912 1.4236404,1.38566522 1.13920344,1.31574514 L1.13566844,1.32681798 L0.309233898,3.89972095 L0,4.8623307 L1.95092617,9.84316164 C1.99662115,9.98560106 2.20063703,10.0475674 2.40649838,9.98154621 L2.4562482,9.9654568 C2.54134796,9.93826854 2.6173763,9.89145588 2.67175281,9.83320648 L4.68326772,7.67997994 L7.57247457,8.25909495 C7.65221985,8.27500242 7.74116651,8.26798442 7.82475869,8.24097811 C7.87934314,8.22340712 7.93169223,8.19751849 7.97754316,8.16404003 C8.09318422,8.07969406 8.14641705,7.96259742 8.11462811,7.86330571 L5.23781972,0 Z" id="Fill-8" fill="#8C8C8C" mask="url(#mask-4)"></path>
            </g>
        </g>
    </g>
</svg>