<?xml version="1.0" encoding="UTF-8"?>
<svg width="42px" height="42px" viewBox="0 0 42 42" version="1.1" xmlns="http://www.w3.org/2000/svg" xmlns:xlink="http://www.w3.org/1999/xlink">
    <!-- Generator: Sketch 41 (35326) - http://www.bohemiancoding.com/sketch -->
    <title>Slice 3 Copy</title>
    <desc>Created with Sketch.</desc>
    <defs></defs>
    <g id="Main-page" stroke="none" stroke-width="1" fill="none" fill-rule="evenodd">
        <g id="Page-1-Copy-5" transform="translate(7.000000, 7.000000)">
            <path d="M7.5117606,9.48266894 C7.38549231,9.35640066 7.29004542,9.21124185 7.22499645,9.05588288 C6.96588686,11.2147796 6.80091692,13.4601567 6.64587096,15.6746756 L18.7389774,27.767782 C22.3823642,25.5350355 25.4458339,22.4714001 27.6787461,18.8281606 L15.5856581,6.73505415 C13.3709551,6.89010011 11.1255964,7.05507005 8.96701269,7.31449264 C9.12239007,7.37956002 9.26753047,7.47497009 9.39348576,7.60094379 C9.91314105,8.12076479 9.91345406,8.96332665 9.39379876,9.48300036 C8.87414346,10.0026557 8.0314159,10.0023242 7.5117606,9.48266894" id="Fill-1" fill="#8C8C8C"></path>
            <g id="Group-5" transform="translate(0.000000, 0.009206)" stroke="#1CD19C" stroke-width="0.5" fill="#1CD19C">
                <path d="M5.70387789,7.15439079 C5.71683982,7.05496694 5.73856577,6.95905976 5.76798786,6.86633781 C4.43388556,6.10915158 2.90415764,5.16381493 1.81927778,4.2621143 C1.11513601,3.67676561 0.673178605,2.86169261 0.637349197,2.0816389 C0.616249248,1.62206138 0.743806359,1.22981589 0.996858458,0.976782206 C1.36658628,0.607035971 2.00262271,0.544067536 2.78779492,0.799347465 C4.58351845,1.38326003 7.00920252,5.85946885 8.06788235,8.10326251 C7.79516643,7.96434531 7.43519687,7.77796242 7.01975249,7.55576854 C6.9904961,7.77411435 6.96125813,7.99949348 6.93214904,8.23098533 C7.72724521,8.65136408 8.27936055,8.92023193 8.34232899,8.95074032 C8.46526473,9.01037622 8.61519221,8.98209566 8.81739085,8.77765077 C8.95470623,8.63856786 8.89300821,8.37835356 8.89300821,8.37835356 C8.88499907,8.36012586 8.07265101,6.54219767 6.96171842,4.648468 C5.44189606,2.05764829 4.10348539,0.559404585 2.98408336,0.195439663 C1.60266268,-0.253735177 0.864661567,0.210942418 0.54770203,0.52775466 C0.167074408,0.908529577 -0.0264890901,1.47069778 0.00291459162,2.11089528 C0.0468820255,3.0661375 0.574215055,4.05288234 1.41342596,4.75045109 C2.59852137,5.73557569 4.25759235,6.74997509 5.65593351,7.53547871 C5.67176767,7.4079216 5.68758343,7.28051178 5.70387789,7.15439079" id="Fill-3"></path>
            </g>
        </g>
    </g>
</svg>