<?xml version="1.0" encoding="UTF-8"?>
<svg width="42px" height="42px" viewBox="0 0 42 42" version="1.1" xmlns="http://www.w3.org/2000/svg" xmlns:xlink="http://www.w3.org/1999/xlink">
    <!-- Generator: Sketch 41 (35326) - http://www.bohemiancoding.com/sketch -->
    <title>Slice 3 Copy 7</title>
    <desc>Created with Sketch.</desc>
    <defs>
        <rect id="path-1" x="20" y="9" width="1" height="2"></rect>
        <mask id="mask-2" maskContentUnits="userSpaceOnUse" maskUnits="objectBoundingBox" x="0" y="0" width="1" height="2" fill="white">
            <use xlink:href="#path-1"></use>
        </mask>
        <rect id="path-3" x="20" y="29" width="1" height="2"></rect>
        <mask id="mask-4" maskContentUnits="userSpaceOnUse" maskUnits="objectBoundingBox" x="0" y="0" width="1" height="2" fill="white">
            <use xlink:href="#path-3"></use>
        </mask>
        <rect id="path-5" x="20" y="20" width="1" height="2"></rect>
        <mask id="mask-6" maskContentUnits="userSpaceOnUse" maskUnits="objectBoundingBox" x="0" y="0" width="1" height="2" fill="white">
            <use xlink:href="#path-5"></use>
        </mask>
        <rect id="path-7" x="20" y="20" width="1" height="2"></rect>
        <mask id="mask-8" maskContentUnits="userSpaceOnUse" maskUnits="objectBoundingBox" x="0" y="0" width="1" height="2" fill="white">
            <use xlink:href="#path-7"></use>
        </mask>
    </defs>
    <g id="Main-page" stroke="none" stroke-width="1" fill="none" fill-rule="evenodd">
        <g id="Page-1-Copy" transform="translate(10.000000, 9.000000)">
            <g id="Group-27">
                <path d="M14.7242241,13.7292736 L10.9088295,11.5289231 L10.9088295,5.4128445 C10.9088295,4.98936602 10.565754,4.64629054 10.1422756,4.64629054 C9.71896743,4.64629054 9.3757216,4.98936602 9.3757216,5.4128445 L9.3757216,12.4145484 L13.9583515,15.0574562 C14.0791264,15.126957 14.210633,15.160004 14.3406065,15.160004 C14.6058341,15.160004 14.8633963,15.022365 15.0052939,14.776216 C15.2170332,14.4094625 15.0909776,13.9408425 14.7242241,13.7292736" id="Fill-4" fill="#1CD19C"></path>
                <circle id="Oval-8" stroke="#8C8C8C" stroke-width="1.3" cx="11" cy="11" r="11"></circle>
            </g>
        </g>
        <use id="Rectangle-43-Copy-4" stroke="#979797" mask="url(#mask-2)" stroke-width="2.6" fill="#D8D8D8" xlink:href="#path-1"></use>
        <use id="Rectangle-43-Copy-5" stroke="#979797" mask="url(#mask-4)" stroke-width="2.6" fill="#D8D8D8" xlink:href="#path-3"></use>
        <use id="Rectangle-43-Copy-6" stroke="#979797" mask="url(#mask-6)" stroke-width="2.6" fill="#D8D8D8" transform="translate(20.500000, 21.000000) rotate(-90.000000) translate(-20.500000, -21.000000) " xlink:href="#path-5"></use>
        <use id="Rectangle-43-Copy-7" stroke="#979797" mask="url(#mask-8)" stroke-width="2.6" fill="#D8D8D8" transform="translate(20.500000, 21.000000) rotate(-90.000000) translate(-20.500000, -21.000000) " xlink:href="#path-7"></use>
    </g>
</svg>