<?xml version="1.0" encoding="UTF-8"?>
<svg width="42px" height="42px" viewBox="0 0 42 42" version="1.1" xmlns="http://www.w3.org/2000/svg" xmlns:xlink="http://www.w3.org/1999/xlink">
    <!-- Generator: Sketch 41 (35326) - http://www.bohemiancoding.com/sketch -->
    <title>Slice 3 Copy 5</title>
    <desc>Created with Sketch.</desc>
    <defs>
        <polygon id="path-1" points="0.101497196 11.2990654 7.43981495 11.2990654 7.43981495 0.0165918599 0.101497196 0.0165918599"></polygon>
        <polygon id="path-3" points="0.0749383178 8.5046729 7.41337757 8.5046729 7.41337757 0.0777084112 0.0749383178 0.0777084112"></polygon>
        <polygon id="path-5" points="7.34463551 8.43848224 7.34463551 0.0939401869 0.00634205607 0.0939401869 0.00634205607 8.43848224 7.34463551 8.43848224"></polygon>
        <polygon id="path-7" points="0.00635420561 6.92523364 7.34463551 6.92523364 7.34463551 0.0549401869 0.00635420561 0.0549401869"></polygon>
        <polygon id="path-9" points="7.34463551 9.51150772 7.34463551 0.101710036 0.00629345794 0.101710036 0.00629345794 9.51150772 7.34463551 9.51150772"></polygon>
        <polygon id="path-11" points="3.29313744e-21 0.0112140187 3.29313744e-21 13.4306159 9.43222897 13.4306159 9.43222897 0.0112140187 0 0.0112140187"></polygon>
    </defs>
    <g id="Main-page" stroke="none" stroke-width="1" fill="none" fill-rule="evenodd">
        <g id="Page-1-Copy-7" transform="translate(7.000000, 7.000000)">
            <path d="M14.2344776,13.5711617 C15.3427579,13.9598252 16.2359916,14.8966757 17.1593561,15.8926944 L17.1593561,11.2922738 C15.9727112,11.9653579 14.9229916,12.8918813 14.2344776,13.5711617" id="Fill-1" fill="#8C8C8C"></path>
            <g id="Group-5" transform="translate(9.719626, 14.689757)">
                <mask id="mask-2" fill="white">
                    <use xlink:href="#path-1"></use>
                </mask>
                <g id="Clip-4"></g>
                <path d="M3.46351589,0.0181635514 C1.8747215,-0.0163411215 1.06641308,0.519088785 0.101497196,1.44658411 L0.101497196,7.39645327 L7.43981495,11.2991262 L7.43981495,3.1342757 C7.12380561,2.81401402 6.82881495,2.49606075 6.54876822,2.19365888 C5.43550654,0.992191589 4.55636636,0.0431915888 3.46351589,0.0181635514" id="Fill-3" fill="#8C8C8C" mask="url(#mask-2)"></path>
            </g>
            <path d="M17.1593804,9.80029907 L17.1593804,7.87338318 L10.3598944,4.25719626 C10.3793336,4.44806542 10.3894178,4.64160748 10.3894178,4.83745794 C10.3894178,5.46024299 10.1699972,6.23441121 9.82118411,7.07248598 L9.82118411,14.3858972 C10.5565953,13.8420841 11.3913897,13.4694579 12.5664925,13.3934019 C13.153072,12.7365981 14.9615299,10.8428505 17.1593804,9.80029907" id="Fill-6" fill="#8C8C8C"></path>
            <path d="M6.15279065,17.754914 C7.0200243,17.0717458 7.67719252,16.4066804 8.25721121,15.8198579 C8.30022056,15.7764841 8.34286542,15.7331103 8.38538879,15.6903439 L8.38538879,9.83973645 C6.93801495,12.2582224 5.21654766,14.4634841 5.09250093,14.621428 L4.71610841,15.1012131 L4.33959439,14.621428 C4.21579065,14.4634841 2.49432336,12.2582224 1.04694953,9.83973645 L1.04694953,17.586157 C1.80763178,18.1009327 4.0950243,19.3760262 6.15279065,17.754914" id="Fill-8" fill="#8C8C8C"></path>
            <g id="Group-12" transform="translate(0.971963, 17.484150)">
                <mask id="mask-4" fill="white">
                    <use xlink:href="#path-3"></use>
                </mask>
                <g id="Clip-11"></g>
                <path d="M0.0749383178,1.64791402 L0.0749383178,8.50474579 L7.41337757,4.6019514 L7.41337757,0.0777084112 C7.00369533,0.470988785 6.54505047,0.88528785 6.00208785,1.31319439 C3.94857383,2.93090467 1.61161121,2.43556822 0.0749383178,1.64791402" id="Fill-10" fill="#8C8C8C" mask="url(#mask-4)"></path>
            </g>
            <g id="Group-15" transform="translate(18.588785, 3.876673)">
                <mask id="mask-6" fill="white">
                    <use xlink:href="#path-5"></use>
                </mask>
                <g id="Clip-14"></g>
                <path d="M4.50713645,6.3881271 C5.5743514,7.30298692 6.52626729,7.96270654 7.34465981,8.43848224 L7.34465981,0.0939401869 L0.00634205607,3.99661308 L0.00634205607,5.39733271 C0.322958879,5.3170243 0.643220561,5.25955701 0.965669159,5.23246355 C2.29239813,5.12165981 3.48317383,5.51032336 4.50713645,6.3881271" id="Fill-13" fill="#8C8C8C" mask="url(#mask-6)"></path>
            </g>
            <g id="Group-18" transform="translate(18.588785, 19.063589)">
                <mask id="mask-8" fill="white">
                    <use xlink:href="#path-7"></use>
                </mask>
                <g id="Clip-17"></g>
                <path d="M0.00635420561,0.0549401869 L0.00635420561,6.92525794 L7.34467196,3.02258505 L7.34467196,2.01368785 C6.86986822,2.0644729 6.41656916,2.08925794 5.98477477,2.08925794 C3.32439159,2.08925794 1.45154112,1.18156636 0.00635420561,0.0549401869" id="Fill-16" fill="#8C8C8C" mask="url(#mask-8)"></path>
            </g>
            <g id="Group-21" transform="translate(18.588785, 10.315925)">
                <mask id="mask-10" fill="white">
                    <use xlink:href="#path-9"></use>
                </mask>
                <g id="Clip-20"></g>
                <path d="M3.64349907,0.956314019 C2.88925607,0.309715888 2.05020935,0.0346504673 1.07885421,0.11544486 C0.720564486,0.145211215 0.361545794,0.223575701 0.00629345794,0.336201869 L0.00629345794,7.05938879 C1.63676075,8.59363178 3.72648037,9.85730467 7.34473271,9.42599626 L7.34473271,3.50953832 C6.30789159,2.97629533 5.06159252,2.17211776 3.64349907,0.956314019" id="Fill-19" fill="#8C8C8C" mask="url(#mask-10)"></path>
            </g>
            <g id="Group-24" transform="translate(0.000000, 0.110318)">
                <mask id="mask-12" fill="white">
                    <use xlink:href="#path-11"></use>
                </mask>
                <g id="Clip-23"></g>
                <path d="M2.19220093,4.72717664 C2.19220093,3.33326075 3.32222897,2.2034757 4.71602336,2.2034757 C6.10993925,2.2034757 7.23996729,3.33326075 7.23996729,4.72717664 C7.23996729,6.12121402 6.10993925,7.25099907 4.71602336,7.25099907 C3.32222897,7.25099907 2.19220093,6.12121402 2.19220093,4.72717664 M9.43222897,4.72717664 C9.43222897,2.12681215 7.31663084,0.0112140187 4.71602336,0.0112140187 C2.11565888,0.0112140187 -6.07476636e-05,2.12681215 -6.07476636e-05,4.72717664 C-6.07476636e-05,6.76939159 3.11629439,11.3140458 4.71602336,13.4306159 C6.31575234,11.3135598 9.43222897,6.76817664 9.43222897,4.72717664" id="Fill-22" fill="#1CD19C" mask="url(#mask-12)"></path>
            </g>
        </g>
    </g>
</svg>