<?xml version="1.0" encoding="UTF-8"?>
<svg width="15px" height="23px" viewBox="0 0 15 23" version="1.1" xmlns="http://www.w3.org/2000/svg" xmlns:xlink="http://www.w3.org/1999/xlink">
    <!-- Generator: Sketch 42 (36781) - http://www.bohemiancoding.com/sketch -->
    <title>Page 1</title>
    <desc>Created with Sketch.</desc>
    <defs></defs>
    <g id="Page-1" stroke="none" stroke-width="1" fill="none" fill-rule="evenodd">
        <g id="главная/вариант1" transform="translate(-355.000000, -3225.000000)" fill="#979797">
            <g id="Page-1" transform="translate(360.995909, 3237.114390) rotate(-29.000000) translate(-360.995909, -3237.114390) translate(356.495909, 3224.614390)">
                <path d="M8.11170469,24.2528335 C8.53892648,24.15062 8.79386495,23.4664189 8.79386495,22.4226848 C8.79386495,20.9149932 8.19078834,18.6909569 7.38396504,17.9708705 C7.24892758,17.8504593 7.12443461,17.7895734 7.01388757,17.7895734 C7.00555402,17.7897434 6.98854679,17.7905938 6.97885266,17.7916142 L5.47575309,17.9654282 L5.35160026,17.8701877 C3.65410797,16.5640319 3.51532892,14.6403434 3.51447856,12.4447091 C3.51532892,10.2461836 3.65410797,8.32045422 5.35126012,7.01463859 L5.47541294,6.91905792 L6.98225411,7.09321202 C6.98888693,7.09372224 7.00606424,7.09474267 7.01558829,7.09491275 C7.15147611,7.09491275 7.29093545,6.99627077 7.38379497,6.91327546 C8.19078834,6.19335913 8.79386495,3.9693228 8.79386495,2.46163127 C8.79386495,1.41789716 8.53909655,0.7338661 8.11255506,0.631822681 L6.61387736,0.272289698 C6.483772,0.240996383 6.35043527,0.225179653 6.21743868,0.225179653 C3.35614119,0.225179653 0.806756414,7.05511581 0.803865184,12.4389266 C0.806756414,17.8254586 3.35631126,24.6593065 6.21777882,24.6593065 C6.35060534,24.6593065 6.48394208,24.6433197 6.61404744,24.6121964 L8.11170469,24.2528335 Z" id="Fill-1"></path>
            </g>
        </g>
    </g>
</svg>