<?xml version="1.0" encoding="UTF-8"?>
<svg width="18px" height="18px" viewBox="0 0 18 18" version="1.1" xmlns="http://www.w3.org/2000/svg" xmlns:xlink="http://www.w3.org/1999/xlink">
    <!-- Generator: Sketch 42 (36781) - http://www.bohemiancoding.com/sketch -->
    <title>Page 1 Copy 2</title>
    <desc>Created with Sketch.</desc>
    <defs></defs>
    <g id="Symbols" stroke="none" stroke-width="1" fill="none" fill-rule="evenodd">
        <g id="header" transform="translate(-866.000000, -22.000000)" fill="#FFFFFF">
            <g id="Group-2">
                <g id="Page-1-Copy-2" transform="translate(866.000000, 22.000000)">
                    <path d="M17.2766638,7.98730294 C17.1264078,6.2655168 16.3692776,4.642875 15.1450606,3.41865796 C13.9214593,2.19444092 12.2988175,1.43731071 10.5773393,1.28674679 C10.0997838,1.24487216 9.67857429,1.59772748 9.63669967,2.07528297 C9.59451714,2.55283846 9.94798826,2.97404795 10.4255437,3.01592257 C11.7415155,3.1313857 12.9817434,3.70962504 13.9174566,4.64595402 C14.8537856,5.58197509 15.4323328,6.82251092 15.547488,8.13817476 C15.5659621,8.34970321 15.6589484,8.53721533 15.7978121,8.67607898 C15.973316,8.85158293 16.2214848,8.95072727 16.4875118,8.92701884 C16.9653752,8.88606792 17.3182305,8.46485843 17.2766638,7.98730294 M10.1234922,6.44286816 C10.6364564,6.48782181 11.1195541,6.71351373 11.4847255,7.07837721 C11.8498969,7.44385649 12.0755888,7.92726212 12.1202345,8.4402263 C12.1387086,8.65144685 12.2320028,8.83865106 12.3711744,8.97782262 C12.5463705,9.15301867 12.7948471,9.25216301 13.0605662,9.22876248 C13.5381217,9.18688785 13.8912849,8.76598627 13.8494103,8.28873868 C13.769048,7.36996009 13.365081,6.5047564 12.7120216,5.85138906 C12.05927,5.19863751 11.1940663,4.79436262 10.2752877,4.71369238 C9.79804014,4.67150985 9.37683066,5.02467307 9.33495603,5.50222856 C9.2927735,5.97916825 9.64624462,6.40068564 10.1234922,6.44286816 M16.4246999,15.4246678 C15.7627113,16.0109126 15.1001069,16.5965415 14.4378104,17.1821705 C13.5609065,17.9568511 11.8680631,18.2869217 10.7386797,17.7696469 C5.65984169,15.4557659 1.79598363,11.0863333 0.121614346,5.76209757 C-0.25371779,4.57821565 0.281107412,2.93833135 1.15739557,2.16272704 C1.81999996,1.57771387 2.48229645,0.99146909 3.14459295,0.406148014 C4.02426802,-0.371611605 4.91318014,0.00957066278 5.28789647,1.19406839 C5.62658831,2.26987683 6.05426373,3.30658175 6.56322519,4.29586982 C5.90739464,4.87626447 5.25094827,5.45635121 4.59480981,6.03643796 C4.12710718,6.4502578 4.0584451,7.4081399 4.50828944,8.13417204 C5.68508963,10.0360807 7.17872063,11.7246134 8.92205989,13.125566 C9.5868196,13.661007 10.5462412,13.7099634 11.0139438,13.2964514 C11.6703902,12.7163647 12.3265287,12.1359701 12.9826671,11.5558833 C13.9023694,12.1824632 14.8787256,12.7339151 15.9049619,13.2013098 C17.0346531,13.7182767 17.304375,14.647524 16.4246999,15.4246678" id="Fill-1"></path>
                </g>
            </g>
        </g>
    </g>
</svg>