<?xml version="1.0" encoding="UTF-8"?>
<svg width="11px" height="12px" viewBox="0 0 11 12" version="1.1" xmlns="http://www.w3.org/2000/svg" xmlns:xlink="http://www.w3.org/1999/xlink">
    <!-- Generator: Sketch 42 (36781) - http://www.bohemiancoding.com/sketch -->
    <title>Fill 1 Copy 3</title>
    <desc>Created with Sketch.</desc>
    <defs></defs>
    <g id="Main-page" stroke="none" stroke-width="1" fill="none" fill-rule="evenodd">
        <g id="main/mobile" transform="translate(-33.000000, -2875.000000)" fill="#D2494A">
            <path d="M43.6950844,2879.94446 C43.6020687,2878.8786 43.1333691,2877.8741 42.3755204,2877.11626 C41.618053,2876.35841 40.6135605,2875.88971 39.5478835,2875.7965 C39.2522539,2875.77058 38.9915051,2875.98901 38.9655827,2876.28464 C38.9394698,2876.58027 39.1582852,2876.84102 39.4539148,2876.86694 C40.268564,2876.93842 41.0363241,2877.29638 41.6155751,2877.87601 C42.1952074,2878.45545 42.5533556,2879.2234 42.6246422,2880.03786 C42.6360786,2880.16881 42.6936415,2880.28489 42.7796047,2880.37085 C42.88825,2880.4795 43.0418783,2880.54087 43.2065617,2880.52619 C43.5023819,2880.50084 43.7208161,2880.24009 43.6950844,2879.94446 M39.2669305,2878.98839 C39.5844798,2879.01621 39.8835403,2879.15593 40.1095987,2879.3818 C40.3356572,2879.60805 40.4753713,2879.9073 40.5030091,2880.22485 C40.5144454,2880.3556 40.572199,2880.47149 40.6583528,2880.55764 C40.7668075,2880.6661 40.9206264,2880.72747 41.0851192,2880.71299 C41.3807488,2880.68706 41.5993736,2880.42651 41.5734512,2880.13107 C41.5237031,2879.5623 41.2736283,2879.0267 40.8693534,2878.62223 C40.4652691,2878.21815 39.9296669,2877.96788 39.3608992,2877.91794 C39.0654602,2877.89183 38.8047115,2878.11046 38.7787891,2878.40609 C38.7526761,2878.70133 38.9714915,2878.96227 39.2669305,2878.98839 M43.1676781,2884.54855 C42.7578757,2884.91146 42.347692,2885.27399 41.9376989,2885.63653 C41.3948536,2886.11609 40.346903,2886.32042 39.6477609,2886.0002 C36.5037183,2884.5678 34.1118062,2881.86291 33.0752918,2878.56696 C32.8429434,2877.83408 33.1740256,2876.81891 33.7164897,2876.33877 C34.1266734,2875.97662 34.5366665,2875.61371 34.9466595,2875.25137 C35.4912203,2874.7699 36.0414992,2875.00587 36.2734665,2875.73913 C36.4831329,2876.40511 36.7478843,2877.04688 37.0629557,2877.65929 C36.6569653,2878.01858 36.2505938,2878.37769 35.8444128,2878.73679 C35.5548826,2878.99296 35.5123775,2879.58594 35.7908526,2880.03538 C36.519348,2881.21276 37.4439767,2882.25804 38.5231867,2883.12529 C38.9347046,2883.45676 39.5286323,2883.48706 39.8181625,2883.23108 C40.224534,2882.87198 40.630715,2882.51269 41.0368959,2882.15359 C41.6062354,2882.54147 42.2106464,2882.88284 42.8459355,2883.17218 C43.5452682,2883.49221 43.7122389,2884.06746 43.1676781,2884.54855" id="Fill-1-Copy-3"></path>
        </g>
    </g>
</svg>