<?xml version="1.0" encoding="UTF-8"?>
<svg width="15px" height="23px" viewBox="0 0 15 23" version="1.1" xmlns="http://www.w3.org/2000/svg" xmlns:xlink="http://www.w3.org/1999/xlink">
    <!-- Generator: Sketch 42 (36781) - http://www.bohemiancoding.com/sketch -->
    <title>Page 1</title>
    <desc>Created with Sketch.</desc>
    <defs></defs>
    <g id="Main_page+search" stroke="none" stroke-width="1" fill="none" fill-rule="evenodd">
        <g id="главная/вариант2" transform="translate(-355.000000, -3223.000000)" fill="#FFFFFF">
            <g id="Page-1" transform="translate(360.900909, 3234.880341) rotate(-29.000000) translate(-360.900909, -3234.880341) translate(356.400909, 3222.380341)">
                <path d="M8.08132393,24.5035941 C8.50854572,24.4013806 8.7634842,23.7171795 8.7634842,22.6734453 C8.7634842,21.1657538 8.16040758,18.9417175 7.35358428,18.2216311 C7.21854682,18.1012199 7.09405385,18.0403339 6.98350681,18.0403339 C6.97517326,18.040504 6.95816603,18.0413544 6.9484719,18.0423748 L5.44537233,18.2161888 L5.3212195,18.1209482 C3.62372721,16.8147925 3.48494816,14.8911039 3.4840978,12.6954697 C3.48494816,10.4969442 3.62372721,8.5712148 5.32087936,7.26539918 L5.44503218,7.16981851 L6.95187335,7.34397261 C6.95850617,7.34448283 6.97568348,7.34550326 6.98520753,7.34567333 C7.12109535,7.34567333 7.26055469,7.24703136 7.35341421,7.16403604 C8.16040758,6.44411972 8.7634842,4.22008338 8.7634842,2.71239186 C8.7634842,1.66865774 8.50871579,0.984626686 8.0821743,0.882583266 L6.5834966,0.523050284 C6.45339124,0.491756968 6.32005451,0.475940238 6.18705792,0.475940238 C3.32576043,0.475940238 0.776375654,7.3058764 0.773484424,12.6896872 C0.776375654,18.0762192 3.3259305,24.910067 6.18739806,24.910067 C6.32022458,24.910067 6.45356132,24.8940802 6.58366668,24.862957 L8.08132393,24.5035941 Z" id="Fill-1"></path>
            </g>
        </g>
    </g>
</svg>