<?xml version="1.0" encoding="UTF-8"?>
<svg width="26px" height="29px" viewBox="0 0 26 29" version="1.1" xmlns="http://www.w3.org/2000/svg" xmlns:xlink="http://www.w3.org/1999/xlink">
    <!-- Generator: Sketch 42 (36781) - http://www.bohemiancoding.com/sketch -->
    <title>Page 1</title>
    <desc>Created with Sketch.</desc>
    <defs></defs>
    <g id="Main_page+search" stroke="none" stroke-width="1" fill="none" fill-rule="evenodd">
        <g id="главная/вариант2" transform="translate(-158.000000, -2268.000000)">
            <g id="Page-1" transform="translate(158.000000, 2268.695312)">
                <path d="M12.9285609,25.3904422 C7.30118594,25.3904422 2.72274844,20.8122078 2.72274844,15.1846297 C2.72274844,9.55705156 7.30118594,4.97881719 12.9285609,4.97881719 C18.5561391,4.97881719 23.1343734,9.55705156 23.1343734,15.1846297 C23.1343734,20.8122078 18.5561391,25.3904422 12.9285609,25.3904422 M13.7942797,3.18522344 L13.8426234,3.18522344 L13.8426234,1.96078594 L14.8283891,1.96078594 L14.8283891,0.132660937 L11.0289359,0.132660937 L11.0289359,1.96078594 L12.0144984,1.96078594 L12.0144984,3.18522344 L12.0630453,3.18522344 C5.83056094,3.63067656 0.894623438,8.84022344 0.894623438,15.1846297 C0.894623438,19.5030672 3.18242031,23.2958172 6.60832656,25.4194891 L5.96970156,26.5255047 C5.71721719,26.9626297 5.86712344,27.5216297 6.30445156,27.7741141 C6.44826406,27.8573953 6.60548281,27.8968016 6.76046719,27.8968016 C7.07632656,27.8968016 7.38345156,27.7326766 7.55285781,27.4395672 L8.23190469,26.2636766 C9.67571719,26.8779266 11.2631391,27.2185672 12.9285609,27.2185672 C14.5941859,27.2185672 16.1816078,26.8779266 17.6254203,26.2636766 L18.3042641,27.4395672 C18.4736703,27.7326766 18.7807953,27.8968016 19.0968578,27.8968016 C19.2518422,27.8968016 19.4088578,27.8573953 19.5528734,27.7741141 C19.9902016,27.5216297 20.1399047,26.9626297 19.8876234,26.5255047 L19.2487953,25.4194891 C22.6749047,23.2958172 24.9624984,19.5030672 24.9624984,15.1846297 C24.9624984,8.84022344 20.0267641,3.63067656 13.7942797,3.18522344" id="Fill-1" fill="#8C8C8C"></path>
                <path d="M23.9984875,1.46335312 L22.8983625,0.721134375 C20.9680656,-0.58069375 18.3479562,-0.071459375 17.045925,1.85863437 L25.1361906,7.3155875 C26.4380187,5.38549375 25.9287844,2.76518125 23.9984875,1.46335312" id="Fill-6" fill="#8C8C8C"></path>
                <path d="M18.3923187,18.2790969 L13.842725,15.6553312 L13.842725,8.36233125 C13.842725,7.8573625 13.4336312,7.44826875 12.9286625,7.44826875 C12.4238969,7.44826875 12.0146,7.8573625 12.0146,8.36233125 L12.0146,16.7113781 L17.4790687,19.8628625 C17.6230844,19.9457375 17.7798969,19.9851437 17.9348812,19.9851437 C18.2511469,19.9851437 18.5582719,19.8210187 18.727475,19.5275031 C18.9799594,19.090175 18.8296469,18.5313781 18.3923187,18.2790969" id="Fill-4" fill="#1CD19C"></path>
                <path d="M2.95898281,0.721175 L1.85865469,1.46339375 C-0.0714390625,2.76522188 -0.580876562,5.38533125 0.721154688,7.31562813 L8.81142031,1.858675 C7.50918594,-0.07141875 4.88927969,-0.58085625 2.95898281,0.721175" id="Fill-9" fill="#8C8C8C"></path>
            </g>
        </g>
    </g>
</svg>