<?xml version="1.0" encoding="UTF-8"?>
<svg width="28px" height="40px" viewBox="0 0 28 40" version="1.1" xmlns="http://www.w3.org/2000/svg" xmlns:xlink="http://www.w3.org/1999/xlink">
    <!-- Generator: Sketch 42 (36781) - http://www.bohemiancoding.com/sketch -->
    <title>Page 1</title>
    <desc>Created with Sketch.</desc>
    <defs>
        <polygon id="path-1" points="27.9800135 27.184768 27.9800135 7.06599657e-15 0 0 0 27.184768 27.9800135 27.184768"></polygon>
        <polygon id="path-3" points="1.76649914e-15 11.9654535 9.71263937 11.9654535 9.71263937 0 0 0 0 11.9654535"></polygon>
    </defs>
    <g id="Main_page+search" stroke="none" stroke-width="1" fill="none" fill-rule="evenodd">
        <g id="главная/вариант2" transform="translate(-158.000000, -2075.000000)">
            <g id="Page-1" transform="translate(158.000000, 2075.695312)">
                <g id="Group-3" transform="translate(0.000000, 0.018335)">
                    <mask id="mask-2" fill="white">
                        <use xlink:href="#path-1"></use>
                    </mask>
                    <g id="Clip-2"></g>
                    <path d="M22.6591992,13.6069745 L22.6592303,13.6069745 C22.6476077,14.3825527 22.5477586,15.12202 22.36248,15.8051765 C21.8501826,17.6940422 20.8108574,19.2622908 19.2734368,20.4664151 C17.8583957,21.5746681 16.2204423,22.1906371 14.4050727,22.2972297 C14.2552836,22.3060244 14.103257,22.3104994 13.9530949,22.3104994 C13.0787553,22.3104994 12.1829107,22.1586593 11.2903913,21.8591432 C8.58259548,20.950495 6.48206717,18.7586637 5.67143454,15.9959556 C5.44006939,15.2073873 5.32331468,14.3991476 5.32443343,13.5937669 L5.32443343,13.5910011 C5.32331468,12.7855893 5.44006939,11.9773807 5.67143454,11.1888124 C6.48206717,8.42610433 8.58262655,6.23424195 11.2903913,5.32559378 C12.1829107,5.02610877 13.0787553,4.87426859 13.9530949,4.87426859 C14.103257,4.87426859 14.2553147,4.87871254 14.4050727,4.88750721 C16.2204423,4.99409989 17.8583957,5.61006881 19.2734368,6.71832186 C20.8108574,7.92244617 21.8501826,9.49072586 22.36248,11.3795605 C22.5477586,12.0627481 22.6476077,12.8022153 22.6592303,13.5777936 L22.6591992,13.5777936 L22.6590439,13.5898824 L22.6614989,13.5923685 L22.6590439,13.5948546 L22.6591992,13.6069745 Z M27.9800383,13.587707 C27.979914,13.5805594 27.9797586,13.5733807 27.9795411,13.566202 C27.9796654,13.5705838 27.9797586,13.5752142 27.9798208,13.5798135 L27.963257,13.5800311 L27.9524734,13.5691543 L27.9795722,13.5687192 C27.974631,13.2572386 27.9374323,12.9320222 27.8689706,12.6021754 C27.7317364,11.9409589 27.3971349,11.3304595 26.846116,10.7356537 C26.7173968,10.5967725 26.5877142,10.4654428 26.4623202,10.3384639 C26.3877364,10.2629478 26.3172858,10.191596 26.2477364,10.1194673 C26.1803002,10.0495139 26.067399,9.93244839 26.0436565,9.88083019 C25.8290106,9.41378024 25.7906931,8.9998091 25.9229862,8.57806881 C26.080358,8.07649279 26.109197,7.55136071 26.0087264,7.01727858 C25.8319939,6.07783352 25.3553102,5.25806437 24.5918829,4.58068812 C23.9231771,3.98734295 23.1624223,3.68645949 22.3308441,3.68642841 C22.2901959,3.68642841 22.2488951,3.68717425 22.2080605,3.68863485 C22.1988929,3.68897669 22.1909684,3.68913208 22.1844112,3.68916315 C21.3856499,3.53430855 20.9095566,3.14802664 20.6424534,2.43901443 C20.4930994,2.04266371 20.3035633,1.71328302 20.0629684,1.43207103 C19.5121671,0.788226415 18.79551,0.353371809 17.9328241,0.139533851 C17.5593147,0.0469567148 17.1969307,0 16.8558341,0 C16.0806288,0 15.3718963,0.237766926 14.749308,0.706681465 C14.5530283,0.85454384 14.3104135,0.929500555 14.0281449,0.929500555 C13.9987153,0.929500555 13.9686021,0.928630411 13.9385822,0.926983352 C13.614267,0.908958935 13.3405133,0.810197558 13.1016587,0.625043285 C12.7524201,0.354304107 12.3624401,0.175240844 11.9424712,0.0927946726 C11.6424579,0.0339045505 11.3433147,0.0040399556 11.0533391,0.0040399556 C9.99521257,0.00400887902 9.03084409,0.388768036 8.18708382,1.14768923 C7.78517039,1.50917203 7.49388959,1.95922309 7.32138349,2.48531853 C7.19160768,2.88114095 6.92829581,3.18681021 6.49272644,3.44720089 C6.21449781,3.61355383 5.92812711,3.69441509 5.61723699,3.69441509 C5.60399836,3.69441509 5.59072866,3.69425971 5.57736573,3.69398002 C5.5580361,3.69354495 5.53886185,3.69335849 5.51974975,3.69335849 C5.00005608,3.69335849 4.48533465,3.84560266 3.98988071,4.14589567 C3.51117705,4.43602664 3.10391845,4.79766482 2.77938571,5.22083463 C2.4570594,5.64111432 2.21320147,6.12625083 2.0545866,6.66275694 C1.86116595,7.31701221 1.85905275,7.94929634 2.04827805,8.54208213 C2.12404276,8.77941398 2.14638682,9.01413541 2.11658438,9.25967148 C2.06937905,9.64834628 1.95629137,9.90883019 1.74984964,10.1042087 C1.55810713,10.2856648 1.38286629,10.470788 1.21337461,10.6498202 L1.15821368,10.7080577 C0.898133767,10.9823396 0.677862956,11.2779401 0.503492257,11.5866238 C0.166000581,12.1841021 -0.00339786496,12.8589301 5.1635599e-05,13.5923685 C-0.00339786496,14.3258069 0.166000581,15.0006349 0.503492257,15.5981132 C0.677862956,15.906828 0.898164843,16.2024284 1.15821368,16.4767414 L1.21356107,16.5351343 C1.38299059,16.7141043 1.55820036,16.8991343 1.74984964,17.0805594 C1.95629137,17.2759378 2.06937905,17.5363907 2.11658438,17.9250655 C2.14638682,18.1706016 2.12404276,18.405323 2.04827805,18.6426859 C1.85905275,19.2354406 1.86116595,19.8677248 2.0545866,20.52198 C2.21320147,21.0585172 2.4570594,21.5436226 2.77938571,21.9639334 C3.10391845,22.3870721 3.51117705,22.7487103 3.98988071,23.0388413 C4.48533465,23.3391343 5.000025,23.4914095 5.51971867,23.4914095 C5.53883077,23.4914095 5.55800502,23.491192 5.57721035,23.4907569 C5.59072866,23.4904772 5.60399836,23.4903219 5.61720591,23.4903219 C5.92809603,23.4903219 6.21449781,23.5711831 6.49272644,23.7375671 C6.92829581,23.9979578 7.19160768,24.303596 7.32138349,24.6994184 C7.49388959,25.2255139 7.78517039,25.6755649 8.18708382,26.0370788 C9.03081301,26.7959378 9.99515041,27.1807281 11.053308,27.1807281 C11.3432836,27.1807281 11.6424579,27.1508635 11.9424712,27.0919423 C12.3624401,27.0095272 12.7524201,26.8304329 13.1016587,26.5596937 C13.3405133,26.3745394 13.614267,26.2758091 13.9385822,26.2577847 C13.9686021,26.2561065 13.9987464,26.2552675 14.0281449,26.2552675 C14.3104135,26.2552675 14.5530283,26.3302553 14.749308,26.4780555 C15.3718652,26.94697 16.0805977,27.184768 16.855803,27.184768 C17.1969307,27.184768 17.5593147,27.1377802 17.9328552,27.0452031 C18.79551,26.8313651 19.5121671,26.3965105 20.0629684,25.752697 C20.3035633,25.471485 20.4930994,25.1421043 20.6424534,24.7457225 C20.9095566,24.0367414 21.3856188,23.6504284 22.1844112,23.4955738 C22.1909684,23.4956049 22.1988929,23.4957913 22.2081227,23.4961021 C22.2491127,23.4975938 22.2903513,23.4983396 22.3308441,23.4983396 C23.1623913,23.4983396 23.923146,23.1974562 24.5918829,22.6040488 C25.3553102,21.9267037 25.8319939,21.1069034 26.0087264,20.1674895 C26.109197,19.6333762 26.080358,19.1082442 25.9229862,18.6066992 C25.7906621,18.1849279 25.8290106,17.7709878 26.0436565,17.3039378 C26.067399,17.2522886 26.1803002,17.1352231 26.2477364,17.0653008 C26.3173169,16.9931099 26.3877675,16.9217891 26.4623824,16.846242 C26.5877764,16.719263 26.7174279,16.5879645 26.846116,16.4490832 C27.3971349,15.8543085 27.7317364,15.243778 27.8689706,14.5826238 C27.9374323,14.2527148 27.974631,13.9275294 27.9795722,13.6160488 L27.9524734,13.6156138 L27.9632259,13.6047059 L27.9798208,13.6049234 C27.9797586,13.6095538 27.9796654,13.6141532 27.97951,13.6187836 C27.9797586,13.6113873 27.979914,13.6041776 27.9800383,13.59703 L27.9754079,13.5923685 L27.9800383,13.587707 Z" id="Fill-1" fill="#1CD19C" mask="url(#mask-2)"></path>
                </g>
                <path d="M14.1547303,7 C10.2032808,7 7,10.2033119 7,14.1547303 C7,18.1062109 10.2032808,21.3094606 14.1547303,21.3094606 C18.1061798,21.3094606 21.3094606,18.1062109 21.3094606,14.1547303 C21.3094606,10.2033119 18.1061798,7 14.1547303,7" id="Fill-4" fill="#8C8C8C"></path>
                <path d="M14.2222761,27.8195516 C14.1902051,27.811596 14.1521674,27.8076182 14.1079454,27.8076182 C14.0948932,27.8076182 14.081406,27.8078357 14.0674837,27.8087059 C13.9226047,27.8166926 13.8195858,27.8520888 13.7235902,27.9265794 C13.6820098,27.9586815 13.6399942,27.9900377 13.5975436,28.0201509 L13.4688244,28.0614828 C13.3277367,28.1070411 13.2165136,28.1928746 13.1576857,28.2899578 C12.8533838,28.4480755 12.5307156,28.5612875 12.19282,28.627636 C11.8367756,28.6974961 11.4802961,28.7328923 11.133295,28.7328923 C10.4937389,28.7328923 9.87432052,28.6152364 9.29182108,28.3828147 C8.7170597,28.1532519 8.17303306,27.8100422 7.67546592,27.3624462 C7.54851808,27.248333 7.43020954,27.1273829 7.3205092,27 L4.01085326,35.9970122 C3.97281553,36.1157869 4.03649144,36.2557558 4.17472008,36.3565993 C4.22953917,36.396626 4.2921274,36.4275782 4.35738823,36.448586 C4.45733051,36.4808746 4.56370565,36.4892653 4.65901753,36.4702775 L8.11333495,35.7778602 L10.5182894,38.3522442 C10.5833017,38.4218868 10.6742007,38.4778557 10.7759454,38.5103618 L10.835426,38.5295982 C11.0815525,38.6085327 11.3254726,38.5344462 11.3801052,38.3641776 L14.0431507,31.3804617 L15.0312306,28.3043152 L14.2222761,27.8195516 Z" id="Fill-6" fill="#8C8C8C"></path>
                <g id="Group-10" transform="translate(14.605993, 26.868502)">
                    <mask id="mask-4" fill="white">
                        <use xlink:href="#path-3"></use>
                    </mask>
                    <g id="Clip-9"></g>
                    <path d="M6.26230411,0 C5.59443729,0.763396226 4.73616426,1.2791121 3.709798,1.53344284 C3.26686349,1.64336071 2.83278579,1.69908102 2.42008879,1.69908102 C2.05509434,1.69908102 1.70209545,1.65669256 1.36202442,1.57309656 L1.357798,1.58633518 L0.369718091,4.66248169 L0,5.81337181 L2.33251498,11.7684218 C2.38714761,11.9387214 2.6310677,12.012808 2.87719423,11.9338735 L2.93667481,11.9146371 C3.03841953,11.882131 3.12931853,11.826162 3.19433074,11.7565194 L5.59928524,9.18213541 L9.05360266,9.87452164 C9.14894562,9.89354051 9.25528968,9.88514983 9.35523196,9.85286127 C9.42049279,9.8318535 9.48308102,9.80090122 9.53790011,9.76087458 C9.67615982,9.66003108 9.73980466,9.52003108 9.701798,9.40131853 L6.26230411,0 Z" id="Fill-8" fill="#8C8C8C" mask="url(#mask-4)"></path>
                </g>
            </g>
        </g>
    </g>
</svg>