<?xml version="1.0" encoding="UTF-8"?>
<svg width="36px" height="36px" viewBox="0 0 36 36" version="1.1" xmlns="http://www.w3.org/2000/svg" xmlns:xlink="http://www.w3.org/1999/xlink">
    <!-- Generator: Sketch 42 (36781) - http://www.bohemiancoding.com/sketch -->
    <title>Page 1</title>
    <desc>Created with Sketch.</desc>
    <defs></defs>
    <g id="Main_page+search" stroke="none" stroke-width="1" fill="none" fill-rule="evenodd">
        <g id="главная/вариант2" transform="translate(-155.000000, -2172.000000)">
            <g id="Page-1" transform="translate(156.000000, 2172.695312)">
                <path d="M9.3017639,11.7423268 C9.14540671,11.5859696 9.02721545,11.4062204 8.94666574,11.2138404 C8.62581203,13.8871881 8.42153084,16.6676238 8.22953844,19.409848 L23.2043529,34.3846624 C27.7159349,31.619867 31.5094092,27.8261875 34.2744099,23.3147878 L19.2996182,8.3399734 C16.5571661,8.5319658 13.7767531,8.73624699 11.103793,9.05748828 C11.2961958,9.1380608 11.4759222,9.25620646 11.6318918,9.41219886 C12.2753776,10.0558898 12.2757652,11.0992286 11.6322794,11.7427372 C10.9887937,12.3862229 9.94524965,12.3858125 9.3017639,11.7423268" id="Fill-1" fill="#8C8C8C"></path>
                <g id="Group-5" transform="translate(0.000000, 0.011400)" stroke="#1CD19C" stroke-width="0.5" fill="#1CD19C">
                    <path d="M7.0630746,8.85923521 C7.07912527,8.73611932 7.10602837,8.61735807 7.14246156,8.5025411 C5.49045142,7.56492236 3.59619937,6.39431818 2.25279975,5.2777482 C1.38086561,4.55291476 0.833592654,3.5436152 0.789225332,2.5776798 C0.763097403,2.00858797 0.921050538,1.52287296 1.23440329,1.209543 C1.69223483,0.751688664 2.47983458,0.673715263 3.45210817,0.989826726 C5.67574085,1.71288182 8.67944953,7.25574186 9.99040583,10.0342168 C9.65270348,9.86219658 9.20695554,9.63139987 8.69251349,9.35625864 C8.6562855,9.62663483 8.6200803,9.90572033 8.58403471,10.1923752 C9.56859709,10.7129274 10.2522779,11.0458647 10.3302513,11.0836431 C10.4824818,11.1574898 10.668136,11.1224702 10.9185173,10.8693074 C11.088554,10.697082 11.0121538,10.3748603 11.0121538,10.3748603 C11.0022361,10.352289 9.99631083,8.10116048 8.62065028,5.75616745 C6.73866422,2.54797239 5.08131906,0.69270703 3.69517087,0.242011653 C1.98456669,-0.314198607 1.07070475,0.261208613 0.678215833,0.653515136 C0.206887144,1.12502622 -0.0328012666,1.82115541 0.0036091197,2.61390779 C0.0580537049,3.79677796 0.711046738,5.01865763 1.7502361,5.88245244 C3.21773198,7.10232578 5.2721487,8.35844991 7.00370538,9.33113388 C7.02331273,9.17318075 7.04289728,9.01541001 7.0630746,8.85923521" id="Fill-3"></path>
                </g>
            </g>
        </g>
    </g>
</svg>