<?xml version="1.0" encoding="UTF-8"?>
<svg width="34px" height="40px" viewBox="0 0 34 40" version="1.1" xmlns="http://www.w3.org/2000/svg" xmlns:xlink="http://www.w3.org/1999/xlink">
    <!-- Generator: Sketch 42 (36781) - http://www.bohemiancoding.com/sketch -->
    <title>Group 25</title>
    <desc>Created with Sketch.</desc>
    <defs></defs>
    <g id="Main_page+search" stroke="none" stroke-width="1" fill="none" fill-rule="evenodd">
        <g id="главная/вариант2" transform="translate(-154.000000, -2447.000000)">
            <g id="Group-25" transform="translate(154.000000, 2447.000000)">
                <g id="Group-22" transform="translate(0.000000, 5.233530)" stroke="#979797" fill-rule="nonzero" stroke-width="0.5" fill="#8C8C8C">
                    <path d="M17,32.6216216 C8.37241661,32.6216216 1.37837838,25.6275834 1.37837838,17 C1.37837838,8.37241661 8.37241661,1.37837838 17,1.37837838 C25.6275834,1.37837838 32.6216216,8.37241661 32.6216216,17 C32.6216216,25.6275834 25.6275834,32.6216216 17,32.6216216 Z M17,33.5405405 C26.1350883,33.5405405 33.5405405,26.1350883 33.5405405,17 C33.5405405,7.86491171 26.1350883,0.459459459 17,0.459459459 C7.86491171,0.459459459 0.459459459,7.86491171 0.459459459,17 C0.459459459,26.1350883 7.86491171,33.5405405 17,33.5405405 Z" id="Oval-9"></path>
                    <path d="M17.2943913,33.2314804 C21.0138318,30.1274343 23.3840683,23.89949 23.3840683,16.9923713 C23.3840683,10.5823015 21.3439538,4.73836571 18.0450234,1.44035921 L17.3953406,2.090224 C20.506953,5.200965 22.4651494,10.8102451 22.4651494,16.9923713 C22.4651494,23.6472323 20.194042,29.6147086 16.7056087,32.5259684 L17.2943913,33.2314804 Z" id="Oval-9-Copy"></path>
                    <path d="M17.2943913,32.5259684 C13.805958,29.6147086 11.5348506,23.6472323 11.5348506,16.9923713 C11.5348506,10.8102451 13.493047,5.200965 16.6046594,2.090224 L15.9549766,1.44035921 C12.6560462,4.73836571 10.6159317,10.5823015 10.6159317,16.9923713 C10.6159317,23.89949 12.9861682,30.1274343 16.7056087,33.2314804 L17.2943913,32.5259684 Z" id="Oval-9-Copy-2"></path>
                    <path d="M27.3699774,30.2275479 C25.3102609,27.0315419 21.3136118,25.0042674 16.8959192,25.0042674 C12.5060479,25.0042674 8.53072819,27.0059641 6.45912401,30.1701824 L7.22793147,30.6735183 C9.12396349,27.7774732 12.806531,25.9231863 16.8959192,25.9231863 C21.0109994,25.9231863 24.7129008,27.8009519 26.5975683,30.7253391 L27.3699774,30.2275479 Z" id="Oval-10-Copy-2"></path>
                    <path d="M6.45732318,4.61882483 C8.51703969,7.81483082 12.5136888,9.84210526 16.9313814,9.84210526 C21.3212526,9.84210526 25.2965724,7.8404086 27.3681766,4.67619031 L26.5993691,4.17285438 C24.7033371,7.06889949 21.0207696,8.92318634 16.9313814,8.92318634 C12.8163012,8.92318634 9.11439979,7.04542077 7.2297323,4.12103358 L6.45732318,4.61882483 Z" id="Oval-10-Copy-3"></path>
                    <polygon id="Line" points="0.882645804 17.8826458 33.1630707 17.8826458 33.1630707 16.9637269 0.882645804 16.9637269"></polygon>
                </g>
                <path d="M27.5675676,15.3416385 C27.5675676,15.3416385 22.0540541,8.48426684 22.0540541,5.69298986 C22.0540541,2.90171289 24.3168311,0.638935811 27.1081081,0.638935811 C29.8993851,0.638935811 32.1621622,2.90171289 32.1621622,5.69298986 C32.1621622,8.48426684 27.5675676,15.3416385 27.5675676,15.3416385 Z M27.1081081,7.99028716 C28.3768704,7.99028716 29.4054054,6.96175213 29.4054054,5.69298986 C29.4054054,4.4242276 28.3768704,3.39569257 27.1081081,3.39569257 C25.8393458,3.39569257 24.8108108,4.4242276 24.8108108,5.69298986 C24.8108108,6.96175213 25.8393458,7.99028716 27.1081081,7.99028716 Z" id="Combined-Shape" fill="#1CD19C"></path>
                <path d="M7.26781327,29.1254223 C7.26781327,29.1254223 2.75675676,23.5538078 2.75675676,21.2858953 C2.75675676,19.0179827 4.60811982,17.1794764 6.89189189,17.1794764 C9.17566397,17.1794764 11.027027,19.0179827 11.027027,21.2858953 C11.027027,23.5538078 7.26781327,29.1254223 7.26781327,29.1254223 Z M6.89189189,23.1524493 C7.92997011,23.1524493 8.77149877,22.3167646 8.77149877,21.2858953 C8.77149877,20.2550259 7.92997011,19.4193412 6.89189189,19.4193412 C5.85381368,19.4193412 5.01228501,20.2550259 5.01228501,21.2858953 C5.01228501,22.3167646 5.85381368,23.1524493 6.89189189,23.1524493 Z" id="Combined-Shape-Copy" fill="#1CD19C"></path>
            </g>
        </g>
    </g>
</svg>