<?xml version="1.0" encoding="UTF-8"?>
<svg width="36px" height="38px" viewBox="0 0 36 38" version="1.1" xmlns="http://www.w3.org/2000/svg" xmlns:xlink="http://www.w3.org/1999/xlink">
    <!-- Generator: Sketch 42 (36781) - http://www.bohemiancoding.com/sketch -->
    <title>Page 1</title>
    <desc>Created with Sketch.</desc>
    <defs></defs>
    <g id="Main_page+search" stroke="none" stroke-width="1" fill="none" fill-rule="evenodd">
        <g id="главная/вариант2" transform="translate(-153.000000, -2357.000000)">
            <g id="Page-1" transform="translate(153.000000, 2357.695312)">
                <path d="M20.600075,8.5654762 L24.9186158,11.5493315 L25.346542,12.1899288 C25.5070144,12.0049076 25.7506946,11.6330562 25.7506946,11.6330562 C25.7194271,11.4692245 25.3165665,9.43709168 25.1933052,8.91174502 C24.0271028,3.92986691 22.9797688,3.92986691 17.9477592,3.92986691 C12.9152328,3.92986691 11.8678988,3.92986691 10.7011796,8.91148662 C10.5463923,9.57379034 10.1740241,11.47646 10.1440486,11.6327978 C10.1440486,11.6327978 10.3874704,12.0049076 10.5479427,12.1896704 L11.004294,11.4542368 L11.2350538,11.4353729 C11.2859605,11.4312383 16.3409685,10.7384423 20.4277159,8.65359386 L20.600075,8.5654762 Z" id="Fill-1" fill="#8C8C8C"></path>
                <path d="M17.9422809,30.6536346 C19.4074632,30.680083 22.7001179,25.3090917 22.7001179,25.3090917 L22.7011516,23.6340241 C20.9245858,25.9423847 19.4077216,27.9691185 17.9422809,27.9426701 C17.9260011,27.9431598 17.9097213,27.9431598 17.8934415,27.9431598 C16.4044856,27.9431598 14.8736673,25.8689169 13.0650587,23.4699459 L13.0650587,25.1440338 C13.0650587,25.1440338 16.4044856,30.6536346 17.8934415,30.6536346 L17.9422809,30.6536346" id="Fill-3" fill="#8C8C8C"></path>
                <path d="M34.7825742,30.8490121 C33.4166213,29.0336848 30.358344,27.4522183 23.9857056,25.291139 L23.9849303,26.4909347 C23.9782117,30.2053138 20.9103733,32.1482954 17.8812963,32.1482954 L17.8745776,32.1482954 C14.8460175,32.1457113 11.7797295,30.1973031 11.7797295,26.478531 L11.7797295,25.3350687 C5.49339986,27.4739247 2.47078311,29.0435044 1.10922308,30.853405 C0.90611316,31.1634965 0.548474314,31.6942698 -0.000129204785,37.2738492 L35.8950274,37.2738492 C35.3466823,31.6945282 34.9887851,31.1632381 34.7825742,30.8490121" id="Fill-5" fill="#8C8C8C"></path>
                <path d="M29.8153738,12.7798779 C29.8083967,11.7914613 29.5063159,11.3573332 29.1864049,10.897881 C28.9119739,10.5032896 28.6008488,10.0559826 28.5626042,9.36577064 C28.2134929,2.98202061 25.0404817,0.25838373 17.9533409,0.25838373 C9.56226528,0.25838373 7.64357422,3.89885776 7.34433593,9.36525382 C7.30609132,10.0611508 6.98127049,10.5043232 6.69469427,10.8952969 C6.35075113,11.3645687 6.02567189,11.8079995 6.08717337,12.889702 C6.2796885,16.2908887 7.46992298,17.1410562 7.82988752,17.3206509 C8.14928175,17.4798312 8.4045904,17.441845 8.52552608,17.3607043 C8.64361925,17.281631 8.71442348,17.1513926 8.72140053,17.0100426 C8.25367921,16.3859834 7.93531862,15.4970545 7.84745937,14.4882236 C7.69060476,12.701063 8.12292397,11.3617262 8.99014649,10.8446486 C9.11082376,10.2296338 9.35863854,8.98539175 9.48396718,8.45100076 C10.8150349,2.76650702 12.5771297,2.49543538 17.9463638,2.49543538 C23.3155979,2.49543538 25.0774343,2.76650702 26.408502,8.45100076 C26.5092817,8.8815111 26.7741516,10.2025008 26.9015475,10.8443902 C27.7690284,11.3612093 28.2013476,12.7005462 28.0452682,14.4882236 C27.9532744,15.5347823 27.6163083,16.455754 27.1193867,17.0821388 C26.9077493,17.3493343 26.6568336,17.5658815 26.3645724,17.8062024 C24.5244378,19.3212578 23.3127554,20.0290416 19.8482582,20.1313718 C19.6221499,19.862109 19.2869927,19.6871657 18.9079058,19.6871657 C18.2267382,19.6871657 17.6747753,20.2391286 17.6747753,20.9202962 C17.6747753,21.6012054 18.2267382,22.1534267 18.9079058,22.1534267 C19.5084497,22.1534267 20.0074385,21.7234331 20.1172626,21.1549321 C23.849472,21.0035041 25.2159418,20.1060476 27.1888989,18.4659221 C27.8390574,17.9255877 28.3150478,17.5591629 28.8026667,16.9136558 C29.4600606,16.0301535 29.6603281,14.1990633 29.806071,12.8654115 L29.8153738,12.7798779 Z" id="Fill-8" fill="#1CD19C"></path>
            </g>
        </g>
    </g>
</svg>